#VRML V2.0 utf8
# 3D model generated by easyeda2kicad.py (https://github.com/uPesy/easyeda2kicad.py)

Shape{
    appearance Appearance {
        material  Material 	{
            diffuseColor 0.6901960784313725 0.5176470588235295 0.3607843137254902
            specularColor 0.050980392156862744 0.03529411764705882 0.027450980392156862
            ambientIntensity 0.2
            transparency 0
            shininess 0.5
        }
    }
    geometry IndexedFaceSet {
        ccw TRUE
        solid FALSE
        coord DEF co Coordinate {
            point [
                -0.0163 0.3846 0.4724, -0.0086 -0.04 0.4724, -0.0163 -0.0491 0.4724, -0.0086 -0.0487 0.4724, 0.0336 -0.0487 0.4724, -0.0067 0.0214 0.4724, 0.023 0.0214 0.4724, 0.023 -0.0045 0.4724, 0.049 -0.0446 0.4724, 0.049 -0.0359 0.4724, 0.0336 0.0301 0.4724, 0.189 -0.0491 0.4724, 0.1546 -0.0487 0.4724, 0.1546 0.0301 0.4724, 0.023 -0.0131 0.4724, 0.023 -0.04 0.4724, -0.0048 -0.0131 0.4724, -0.0048 -0.0045 0.4724, 0.088 -0.046 0.4724, 0.1143 -0.0487 0.4724, 0.0803 -0.0486 0.4724, 0.0753 -0.0491 0.4724, -0.0067 0.0301 0.4724, 0.1034 0.0093 0.4724, 0.0988 0.0167 0.4724, 0.144 0.0301 0.4724, 0.0752 0.0215 0.4724, 0.0811 0.0194 0.4724, 0.0504 -0.0367 0.4724, 0.0865 0.0158 0.4724, 0.0913 0.0105 0.4724, 0.097 -0.0101 0.4724, 0.0962 -0.0186 0.4724, 0.094 -0.0254 0.4724, 0.0765 -0.0401 0.4724, 0.0692 -0.041 0.4724, 0.0823 -0.038 0.4724, 0.0871 -0.0348 0.4724, 0.0908 -0.0309 0.4724, 0.0587 -0.0398 0.4724, 0.0945 0.0044 0.4724, 0.0966 -0.004 0.4724, 0.0917 0.0235 0.4724, 0.189 0.3846 0.4724, 0.0943 -0.0419 0.4724, 0.1002 -0.0357 0.4724, 0.1143 -0.04 0.4724, 0.1044 -0.0282 0.4724, 0.144 -0.04 0.4724, 0.1068 -0.0199 0.4724, 0.1075 -0.0108 0.4724, 0.1064 0.0004 0.4724, 0.0842 0.0279 0.4724, 0.0754 0.0304 0.4724, 0.0675 0.031 0.4724, 0.0581 0.0304 0.4724, 0.049 0.0279 0.4724, 0.049 0.0174 0.4724, 0.0578 0.0212 0.4724, 0.0674 0.0224 0.4724, 0.0653 -0.0491 0.4724, 0.0685 -0.0496 0.4724, -0.0163 -0.3846 0.4724, 0.189 -0.3846 0.4724, 0.0706 -0.0496 0.4724, -0.189 -0.3846 0.4724, -0.189 -0.0491 0.4724, 0.0574 -0.048 0.4724, -0.1447 -0.0266 0.4724, -0.1122 -0.0266 0.4724, -0.1527 -0.0487 0.4724, -0.1047 -0.0487 0.4724, -0.0931 -0.0487 0.4724, -0.0835 -0.0271 0.4724, -0.0789 -0.0341 0.4724, -0.1642 -0.0487 0.4724, -0.1335 0.0301 0.4724, -0.189 0.3846 0.4724, -0.1229 0.0301 0.4724, -0.0725 -0.0403 0.4724, -0.0642 -0.0451 0.4724, -0.0552 -0.0478 0.4724, -0.0454 -0.0487 0.4724, -0.024 -0.0487 0.4724, -0.024 0.0301 0.4724, -0.0462 0.0301 0.4724, -0.0755 0.0198 0.4724, -0.081 0.0136 0.4724, -0.0847 0.0069 0.4724, -0.0576 0.0289 0.4724, -0.0668 0.0256 0.4724, -0.0754 0.0199 0.4724, -0.0868 -0.0009 0.4724, -0.0874 -0.0083 0.4724, -0.0863 -0.0188 0.4724, 0.5195 -0.1566 0.0, 0.5195 -0.0962 0.0, 0.5288 -0.1549 0.0006, 0.5283 -0.0932 0.0005, 0.5367 -0.1527 0.0025, 0.5367 -0.0892 0.0022, 0.5473 -0.1498 0.005, 0.5421 -0.0866 0.0033, 0.553 -0.1473 0.008, 0.5532 -0.0792 0.0076, 0.5641 -0.1424 0.0138, 0.5625 -0.0704 0.0133, 0.5677 -0.1401 0.017, 0.568 -0.0651 0.0167, 0.5783 -0.1332 0.0264, 0.5802 -0.1315 0.029, 0.5785 -0.0498 0.0269, 0.5804 -0.0469 0.0288, 0.5892 -0.1228 0.042, 0.5897 -0.1219 0.0435, 0.5887 -0.0259 0.0411, 0.5899 -0.021 0.0434, 0.5959 -0.1118 0.0597, 0.5915 -0.0108 0.0469, 0.5921 0.0 0.0482, 0.5959 0.1118 0.0597, 0.592 0.0055 0.0479, 0.5912 0.0134 0.0462, 0.5897 0.1219 0.0435, 0.5899 0.0202 0.0434, 0.5887 0.0259 0.0411, 0.5892 0.1228 0.042, 0.5802 0.0464 0.029, 0.5802 0.1315 0.029, 0.5787 0.05 0.0268, 0.5783 0.1332 0.0264, 0.5676 0.0645 0.0171, 0.5677 0.1401 0.017, 0.5628 0.0707 0.013, 0.5641 0.1424 0.0138, 0.5532 0.0792 0.0076, 0.553 0.1473 0.008, 0.5419 0.0863 0.0037, 0.5473 0.1498 0.005, 0.5368 0.0895 0.0019, 0.5367 0.1527 0.0025, 0.5284 0.0932 0.0005, 0.5288 0.1549 0.0006, 0.5195 0.0962 0.0, 0.5195 0.1566 0.0, 0.7087 0.374 1.811, 0.7087 -0.374 1.811, 0.7087 0.374 0.5329, 0.7087 -0.374 0.5329, 0.7087 0.3674 0.5215, 0.7087 -0.3674 0.5215, -0.7087 -0.374 1.811, -0.7087 0.374 1.811, -0.7087 -0.374 0.5329, -0.7087 0.374 0.5329, -0.7087 -0.3674 0.5215, -0.7087 0.3674 0.5215, 0.6299 -0.4422 0.4935, 0.2877 -0.4422 0.4935, 0.3011 -0.439 0.488, 0.3549 -0.4207 0.4562, 0.4006 -0.3955 0.4127, 0.6299 -0.4356 0.4821, 0.4354 -0.3648 0.3595, 0.4646 -0.1573 0.0, 0.5097 -0.1573 0.0, 0.4646 -0.2936 0.2362, 0.4572 -0.3302 0.2996, 0.3343 0.4288 0.4704, 0.2877 0.4422 0.4935, 0.6299 0.4422 0.4935, 0.463 0.3104 0.2652, 0.4492 0.3461 0.3271, 0.6299 0.4356 0.4821, 0.4218 0.3788 0.3837, 0.3827 0.4068 0.4322, 0.5097 0.1573 0.0, 0.4646 0.1573 -0.0, 0.4646 0.2936 0.2362, -0.518 0.0966 0.0, -0.5195 0.0962 0.0, -0.5195 0.1566 0.0, -0.5195 -0.1566 0.0, -0.5195 -0.0962 0.0, -0.518 -0.0966 0.0, -0.5097 -0.1573 0.0, -0.4921 -0.1 0.0, -0.4646 -0.1573 0.0, -0.4662 -0.0966 0.0, -0.447 -0.155 0.0, -0.4055 -0.05 0.0, -0.3955 -0.0259 0.0, -0.3858 -0.0663 0.0, -0.3921 -0.0 0.0, -0.3858 0.0663 0.0, -0.4304 -0.1483 0.0, -0.4421 -0.0866 0.0, -0.4155 -0.1374 0.0, -0.403 -0.123 0.0, -0.4214 -0.0707 0.0, -0.3936 -0.1058 0.0, -0.3878 -0.0866 0.0, -0.4921 0.1 0.0, -0.3955 0.0259 0.0, -0.4055 0.05 0.0, -0.3885 0.0899 0.0, -0.4214 0.0707 0.0, -0.4421 0.0866 0.0, -0.4089 0.1306 0.0, -0.3964 0.1118 0.0, -0.4442 0.1542 0.0, -0.4344 0.1503 0.0, -0.4662 0.0966 0.0, -0.4252 0.1451 0.0, -0.4166 0.1385 0.0, -0.5097 0.1573 0.0, -0.4646 0.1573 0.0, -0.4543 0.1565 0.0, -0.6299 0.4528 1.811, 0.6299 0.4528 1.811, -0.6299 0.4528 0.5329, 0.6299 0.4528 0.5329, 0.6299 -0.4528 1.811, -0.6299 -0.4528 1.811, 0.6299 -0.4528 0.5329, -0.6299 -0.4528 0.5329, 0.6299 -0.374 1.8898, 0.6299 0.374 1.8898, -0.6299 -0.374 1.8898, -0.6299 0.374 1.8898, 0.518 -0.0966 0.0, 0.4055 0.05 0.0, 0.3955 0.0259 0.0, 0.3858 0.0663 0.0, 0.3921 -0.0 0.0, 0.3858 -0.0663 0.0, 0.4214 0.0707 0.0, 0.3964 0.1118 0.0, 0.4089 0.1306 0.0, 0.4921 -0.1 0.0, 0.3955 -0.0259 0.0, 0.4055 -0.05 0.0, 0.3885 -0.0899 0.0, 0.4214 -0.0707 0.0, 0.4421 -0.0866 0.0, 0.4089 -0.1306 0.0, 0.3964 -0.1118 0.0, 0.4442 -0.1542 0.0, 0.4344 -0.1503 0.0, 0.4662 -0.0966 0.0, 0.4252 -0.1451 0.0, 0.4166 -0.1385 0.0, 0.4662 0.0966 0.0, 0.4921 0.1 0.0, 0.518 0.0966 0.0, 0.4421 0.0866 0.0, 0.4166 0.1385 0.0, 0.4252 0.1451 0.0, 0.4344 0.1503 0.0, 0.3885 0.0899 0.0, 0.4543 -0.1565 0.0, 0.4442 0.1542 0.0, 0.4543 0.1565 0.0, 0.7063 -0.3674 0.5024, 0.7063 0.3674 0.5024, -0.7063 -0.3674 0.5024, -0.7063 0.3674 0.5024, -0.5959 -0.1118 0.0597, -0.5959 0.1118 0.0597, -0.6299 0.4422 0.4935, -0.2877 0.4422 0.4935, -0.3011 0.439 0.488, -0.3549 0.4207 0.4562, -0.4006 0.3955 0.4127, -0.6299 0.4356 0.4821, -0.4354 0.3648 0.3595, -0.4646 0.2936 0.2362, -0.4572 0.3302 0.2996, -0.3343 -0.4288 0.4704, -0.2877 -0.4422 0.4935, -0.6299 -0.4422 0.4935, -0.463 -0.3104 0.2652, -0.4492 -0.3461 0.3271, -0.6299 -0.4356 0.4821, -0.4218 -0.3788 0.3837, -0.3827 -0.4068 0.4322, -0.4646 -0.2936 0.2362, -0.3858 0.2255 0.2756, -0.3858 -0.2255 0.2756, -0.2398 -0.3789 0.4655, -0.2399 0.3789 0.4654, -0.227 0.3816 0.4687, -0.2108 -0.3836 0.4712, -0.2323 -0.3807 0.4676, -0.2871 -0.3628 0.4455, -0.2868 0.3624 0.445, -0.2533 -0.3758 0.4616, -0.269 0.3708 0.4554, -0.2483 0.3772 0.4633, -0.2928 -0.3606 0.4428, -0.3274 -0.3386 0.4156, -0.3075 0.3525 0.4328, -0.3273 0.3372 0.4139, -0.3281 -0.3379 0.4147, -0.3553 -0.3106 0.3809, -0.3402 0.3274 0.4017, -0.3586 0.3046 0.3735, -0.3588 -0.3047 0.3737, -0.3748 -0.2779 0.3405, -0.365 0.2967 0.3637, -0.3786 0.2665 0.3263, -0.3847 -0.2422 0.2963, -0.378 -0.2664 0.3263, -0.3806 0.262 0.3209, 0.227 -0.3816 0.4687, 0.2323 0.3807 0.4676, 0.2108 0.3836 0.4712, 0.2398 0.3789 0.4655, 0.2399 -0.3789 0.4654, 0.2871 0.3628 0.4455, 0.2868 -0.3624 0.445, 0.2533 0.3758 0.4616, 0.269 -0.3708 0.4554, 0.2483 -0.3772 0.4633, 0.2928 0.3606 0.4428, 0.3274 0.3386 0.4156, 0.3075 -0.3525 0.4328, 0.3273 -0.3372 0.4139, 0.3281 0.3379 0.4147, 0.3553 0.3106 0.3809, 0.3402 -0.3274 0.4017, 0.3586 -0.3046 0.3735, 0.3588 0.3047 0.3737, 0.3748 0.2779 0.3405, 0.365 -0.2967 0.3637, 0.3786 -0.2665 0.3263, 0.3847 0.2422 0.2963, 0.3858 0.2255 0.2756, 0.3858 -0.2255 0.2756, 0.378 0.2664 0.3263, 0.3806 -0.262 0.3209, 0.4442 -0.2913 0.2376, 0.4252 -0.2845 0.2415, 0.4089 -0.2737 0.2478, 0.3964 -0.2595 0.2559, 0.3885 -0.2431 0.2654, -0.3881 -0.2406 0.2669, -0.3885 -0.2431 0.2654, -0.3941 -0.2549 0.2586, -0.3964 -0.2595 0.2559, -0.4035 -0.2676 0.2512, -0.4089 -0.2737 0.2478, -0.4159 -0.2783 0.2451, -0.4252 -0.2845 0.2415, -0.4306 -0.2865 0.2404, -0.4442 -0.2913 0.2376, -0.4471 -0.2917 0.2374, 0.3849 -0.2785 0.3124, 0.3704 -0.3122 0.3574, 0.2778 -0.4432 0.4953, 0.271 -0.4436 0.4962, 0.2673 -0.4377 0.4882, 0.2332 -0.446 0.501, 0.189 -0.4469 0.503, 0.189 -0.4449 0.5006, 0.2945 -0.4315 0.4776, 0.2859 -0.4424 0.4939, 0.189 -0.3982 0.4736, 0.2288 -0.3953 0.4696, 0.189 -0.4023 0.4747, 0.2309 -0.4086 0.4729, 0.2335 -0.4211 0.4784, 0.189 -0.4191 0.4808, 0.189 -0.4115 0.4772, 0.2362 -0.4323 0.4861, 0.189 -0.4343 0.4903, 0.189 -0.4239 0.483, 0.2406 -0.4456 0.5001, 0.2392 -0.442 0.4956, 0.189 -0.4352 0.4909, 0.251 -0.391 0.4638, 0.2626 -0.4281 0.479, 0.2583 -0.4168 0.4718, 0.2544 -0.4043 0.4666, 0.2726 -0.3847 0.4553, 0.277 -0.3982 0.4576, 0.2823 -0.4108 0.4622, 0.2882 -0.422 0.4689, 0.3124 -0.3668 0.4309, 0.345 -0.4137 0.4471, 0.3354 -0.4044 0.4398, 0.3266 -0.3932 0.4345, 0.3188 -0.3805 0.4315, 0.3457 -0.3422 0.3977, 0.3875 -0.3893 0.4053, 0.3749 -0.3805 0.4, 0.3634 -0.3693 0.3968, 0.3535 -0.3564 0.3961, 0.4194 -0.3597 0.3545, 0.4041 -0.3513 0.3517, 0.3904 -0.3402 0.3512, 0.379 -0.327 0.3532, 0.4386 -0.3263 0.2975, 0.4212 -0.3187 0.2978, 0.4059 -0.3077 0.3005, 0.3935 -0.2941 0.3054, -0.189 -0.3982 0.4736, -0.189 -0.4023 0.4747, -0.189 -0.4115 0.4772, -0.189 -0.4191 0.4808, -0.189 -0.4239 0.483, -0.189 -0.4343 0.4903, -0.189 -0.4352 0.4909, -0.189 -0.4449 0.5006, -0.189 -0.4469 0.503, -0.3257 -0.4216 0.4607, -0.2738 -0.4364 0.486, -0.2422 -0.4456 0.5002, -0.2479 -0.4452 0.4994, -0.2461 -0.4411 0.4941, -0.2783 -0.4429 0.495, -0.2859 -0.4424 0.4939, -0.2182 -0.4463 0.5017, -0.2177 -0.4439 0.4989, -0.1985 -0.4468 0.5029, -0.3965 -0.2753 0.2785, -0.4091 -0.2892 0.2718, -0.425 -0.3001 0.2672, -0.4434 -0.3073 0.2649, -0.3883 -0.2593 0.2868, -0.3797 -0.294 0.3329, -0.3608 -0.3258 0.3757, -0.3327 -0.3532 0.4125, -0.3709 -0.4002 0.424, -0.4069 -0.3731 0.3776, -0.4317 -0.3416 0.3236, -0.2972 -0.3748 0.4418, -0.2562 -0.3897 0.462, -0.2342 -0.3944 0.4684, -0.2118 -0.3973 0.4723, -0.3884 -0.3091 0.3272, -0.4005 -0.3226 0.3237, -0.3692 -0.3403 0.3726, -0.38 -0.3534 0.3719, -0.34 -0.3672 0.4119, -0.3491 -0.38 0.4137, -0.3029 -0.3884 0.4431, -0.3097 -0.401 0.4468, -0.2598 -0.4031 0.4647, -0.264 -0.4156 0.4698, -0.2367 -0.4077 0.4716, -0.2396 -0.4202 0.4771, -0.213 -0.4106 0.4758, -0.2144 -0.423 0.4815, -0.4151 -0.3336 0.3224, -0.3928 -0.3645 0.3736, -0.3595 -0.3912 0.4177, -0.3174 -0.4122 0.4527, -0.2687 -0.4268 0.4769, -0.2427 -0.4314 0.4846, -0.216 -0.4342 0.4893, 0.6299 -0.4501 0.5125, -0.6299 -0.4493 0.5098, -0.6299 -0.4498 0.5126, -0.6299 -0.4526 0.5272, 0.6503 -0.4501 0.5329, 0.6503 -0.4475 0.5132, 0.6693 -0.4422 0.5329, 0.6693 -0.4399 0.5153, 0.6856 -0.4297 0.5329, 0.6856 -0.4278 0.5185, 0.6981 -0.4134 0.5329, 0.6981 -0.412 0.5227, 0.706 -0.3944 0.5329, 0.706 -0.3937 0.5276, 0.6503 -0.4399 0.4949, 0.6693 -0.4331 0.4988, 0.6856 -0.4222 0.5051, 0.6981 -0.4081 0.5132, 0.706 -0.3917 0.5227, -0.6503 -0.4501 0.5329, -0.6518 -0.4494 0.5329, -0.6471 -0.4502 0.5233, -0.663 -0.4448 0.5329, -0.6646 -0.4441 0.5319, -0.6542 -0.4475 0.5185, -0.6991 -0.411 0.5329, -0.6987 -0.4124 0.532, -0.6983 -0.4129 0.5329, -0.6896 -0.4242 0.5224, -0.6856 -0.4297 0.5329, -0.6981 -0.4134 0.5329, -0.6776 -0.4335 0.5133, -0.6816 -0.4328 0.5329, -0.6848 -0.4303 0.5329, -0.6654 -0.4438 0.5329, -0.6693 -0.4422 0.5329, -0.6727 -0.4395 0.5236, -0.6502 -0.4397 0.495, -0.6469 -0.4428 0.4985, -0.6643 -0.4354 0.4975, -0.6631 -0.4398 0.5052, -0.6691 -0.4328 0.499, -0.6424 -0.4467 0.5053, -0.6387 -0.4481 0.5078, -0.6405 -0.4514 0.5329, -0.6388 -0.452 0.5262, -0.6345 -0.449 0.5093, -0.6452 -0.4449 0.5022, -0.6597 -0.444 0.5124, -0.6475 -0.4405 0.4945, -0.6793 -0.4272 0.5022, -0.6852 -0.4219 0.5052, -0.6917 -0.4162 0.5085, -0.6977 -0.4079 0.5133, -0.7011 -0.4032 0.5161, -0.7057 -0.3916 0.5228, -0.706 -0.3944 0.5329, -0.7068 -0.3887 0.5245, -0.7061 -0.3935 0.5329, 0.7051 -0.3739 0.499, 0.7015 -0.3838 0.4942, 0.6995 -0.3891 0.4916, 0.6929 -0.3992 0.4874, 0.6904 -0.4031 0.4858, 0.6807 -0.4128 0.4826, 0.6782 -0.4154 0.4818, 0.6656 -0.4238 0.4801, 0.6635 -0.4251 0.4798, 0.6483 -0.4315 0.4799, 0.6471 -0.432 0.4799, 0.7068 -0.3821 0.513, 0.7011 -0.3966 0.5046, 0.7057 -0.385 0.5113, 0.6793 -0.4206 0.4908, 0.6852 -0.4153 0.4938, 0.6917 -0.4096 0.4971, 0.6977 -0.4013 0.5019, 0.6691 -0.4262 0.4876, 0.6643 -0.4288 0.4861, 0.6502 -0.4331 0.4836, 0.6475 -0.4339 0.4831, 0.6503 -0.4501 1.811, 0.6693 -0.4422 1.811, 0.6856 -0.4297 1.811, 0.6981 -0.4134 1.811, 0.706 -0.3944 1.811, 0.6299 -0.4501 1.8314, -0.6299 -0.4501 1.8314, 0.6299 -0.4422 1.8504, -0.6299 -0.4422 1.8504, 0.6299 -0.4297 1.8667, -0.6299 -0.4297 1.8667, 0.6299 -0.4134 1.8792, -0.6299 -0.4134 1.8792, 0.6299 -0.3944 1.8871, -0.6299 -0.3944 1.8871, -0.6981 -0.4134 1.811, -0.706 -0.3944 1.811, -0.6693 -0.4422 1.811, -0.6856 -0.4297 1.811, -0.6503 -0.4501 1.811, -0.6468 -0.434 0.483, -0.6502 -0.433 0.4836, -0.6636 -0.4291 0.4859, -0.669 -0.4261 0.4876, -0.6787 -0.421 0.4906, -0.6852 -0.4153 0.4938, -0.6913 -0.4101 0.4968, -0.6977 -0.4013 0.5019, -0.7008 -0.3972 0.5043, -0.7057 -0.385 0.5113, -0.7067 -0.3827 0.5127, -0.6468 -0.432 0.48, -0.5288 -0.1547 0.001, -0.6483 -0.4316 0.4798, -0.5368 -0.153 0.0019, -0.6635 -0.4249 0.4799, -0.5471 -0.1495 0.0055, -0.6657 -0.4239 0.4799, -0.5532 -0.1475 0.0076, -0.6785 -0.4147 0.4821, -0.5639 -0.1422 0.0142, -0.6809 -0.413 0.4825, -0.568 -0.1402 0.0167, -0.6837 -0.4099 0.4835, -0.5781 -0.1332 0.0266, -0.6911 -0.4017 0.4864, -0.6933 -0.3993 0.4873, -0.5804 -0.1315 0.0288, -0.6983 -0.3902 0.4913, -0.589 -0.1228 0.0421, -0.7006 -0.3861 0.4931, -0.7019 -0.3839 0.4941, -0.5899 -0.1219 0.0434, -0.7047 -0.3732 0.4995, -0.703 -0.3799 0.4961, 0.706 -0.374 1.8314, 0.7034 -0.3937 1.8314, 0.664 -0.3937 1.8792, 0.6476 -0.3842 1.8871, 0.6443 -0.3884 1.8871, 0.6352 -0.3937 1.8871, 0.6496 -0.3793 1.8871, 0.668 -0.3842 1.8792, 0.6837 -0.3884 1.8667, 0.6503 -0.374 1.8871, 0.6578 -0.4019 1.8792, 0.6401 -0.3917 1.8871, 0.6496 -0.4081 1.8792, 0.6401 -0.412 1.8792, 0.6693 -0.374 1.8792, 0.6856 -0.374 1.8667, 0.6981 -0.374 1.8504, 0.6781 -0.4019 1.8667, 0.6693 -0.4134 1.8667, 0.6578 -0.4222 1.8667, 0.6443 -0.4278 1.8667, 0.6958 -0.3917 1.8504, 0.689 -0.4081 1.8504, 0.6781 -0.4222 1.8504, 0.664 -0.4331 1.8504, 0.6476 -0.4399 1.8504, 0.6958 -0.412 1.8314, 0.6837 -0.4278 1.8314, 0.668 -0.4399 1.8314, 0.6496 -0.4475 1.8314, -0.6496 -0.4475 1.8314, -0.6496 -0.4081 1.8792, -0.6401 -0.3917 1.8871, -0.6443 -0.3884 1.8871, -0.6503 -0.374 1.8871, -0.6496 -0.3793 1.8871, -0.6352 -0.3937 1.8871, -0.6401 -0.412 1.8792, -0.6443 -0.4278 1.8667, -0.6578 -0.4019 1.8792, -0.6476 -0.3842 1.8871, -0.664 -0.3937 1.8792, -0.668 -0.3842 1.8792, -0.6693 -0.374 1.8792, -0.6578 -0.4222 1.8667, -0.6693 -0.4134 1.8667, -0.6781 -0.4019 1.8667, -0.6837 -0.3884 1.8667, -0.6856 -0.374 1.8667, -0.6476 -0.4399 1.8504, -0.664 -0.4331 1.8504, -0.6781 -0.4222 1.8504, -0.689 -0.4081 1.8504, -0.6958 -0.3917 1.8504, -0.6981 -0.374 1.8504, -0.668 -0.4399 1.8314, -0.6837 -0.4278 1.8314, -0.6958 -0.412 1.8314, -0.7034 -0.3937 1.8314, -0.706 -0.374 1.8314, -0.7067 -0.3778 0.5072, -0.7067 -0.3805 0.5097, -0.7008 -0.3876 0.4937, -0.6913 -0.4041 0.4885, -0.7008 -0.3929 0.4985, -0.7067 -0.3746 0.5054, -0.7067 -0.3711 0.5042, -0.7067 -0.3674 0.5039, -0.5288 0.1547 0.001, -0.5284 0.0932 0.0005, -0.5368 0.153 0.0019, -0.5368 0.0895 0.0019, -0.5471 0.1495 0.0055, -0.5419 0.0863 0.0037, -0.5532 0.1475 0.0076, -0.5532 0.0792 0.0076, -0.5639 0.1422 0.0142, -0.5628 0.0707 0.013, -0.568 0.1402 0.0167, -0.5676 0.0645 0.0171, -0.5781 0.1332 0.0266, -0.5804 0.1315 0.0288, -0.5787 0.05 0.0268, -0.5802 0.0464 0.029, -0.589 0.1228 0.0421, -0.5899 0.1219 0.0434, -0.5887 0.0259 0.0411, -0.5899 0.0202 0.0434, -0.5912 0.0134 0.0462, -0.592 0.0055 0.0479, -0.5921 0.0 0.0482, -0.5915 -0.0108 0.0469, -0.5899 -0.021 0.0434, -0.5887 -0.0259 0.0411, -0.5804 -0.0469 0.0288, -0.5785 -0.0498 0.0269, -0.568 -0.0651 0.0167, -0.5625 -0.0704 0.0133, -0.5532 -0.0792 0.0076, -0.5421 -0.0866 0.0033, -0.5367 -0.0892 0.0022, -0.5283 -0.0932 0.0005, 0.6468 0.432 0.48, 0.6483 0.4316 0.4798, 0.6635 0.4249 0.4799, 0.6657 0.4239 0.4799, 0.6785 0.4147 0.4821, 0.6809 0.413 0.4825, 0.6837 0.4099 0.4835, 0.6911 0.4017 0.4864, 0.6933 0.3993 0.4873, 0.6983 0.3902 0.4913, 0.7006 0.3861 0.4931, 0.7019 0.3839 0.4941, 0.7047 0.3732 0.4995, 0.703 0.3799 0.4961, 0.7067 0.3674 0.5039, 0.706 0.374 1.8314, 0.6981 0.374 1.8504, 0.6856 0.374 1.8667, 0.6693 0.374 1.8792, 0.6503 0.374 1.8871, -0.6299 0.4501 1.8314, 0.6299 0.4501 1.8314, -0.6299 0.4422 1.8504, 0.6299 0.4422 1.8504, -0.6299 0.4297 1.8667, 0.6299 0.4297 1.8667, -0.6299 0.4134 1.8792, 0.6299 0.4134 1.8792, -0.6299 0.3944 1.8871, 0.6299 0.3944 1.8871, -0.706 0.374 1.8314, -0.6981 0.374 1.8504, -0.6856 0.374 1.8667, -0.6693 0.374 1.8792, -0.6503 0.374 1.8871, -0.6656 0.4238 0.4801, -0.6782 0.4154 0.4818, -0.6807 0.4128 0.4826, -0.6904 0.4031 0.4858, -0.6929 0.3992 0.4874, -0.6995 0.3891 0.4916, -0.7015 0.3838 0.4942, -0.7051 0.3739 0.499, -0.6471 0.432 0.4799, -0.6483 0.4315 0.4799, -0.6635 0.4251 0.4798, 0.7067 0.3778 0.5072, 0.7067 0.3805 0.5097, 0.7008 0.3876 0.4937, 0.6913 0.4041 0.4885, 0.6468 0.434 0.483, 0.6502 0.433 0.4836, 0.6636 0.4291 0.4859, 0.669 0.4261 0.4876, 0.6787 0.421 0.4906, 0.6852 0.4153 0.4938, 0.7008 0.3929 0.4985, 0.7067 0.3746 0.5054, 0.7067 0.3711 0.5042, 0.7057 0.385 0.5113, 0.7067 0.3827 0.5127, 0.6913 0.4101 0.4968, 0.6977 0.4013 0.5019, 0.7008 0.3972 0.5043, 0.6496 0.4475 1.8314, 0.6496 0.4081 1.8792, 0.6401 0.3917 1.8871, 0.6443 0.3884 1.8871, 0.6496 0.3793 1.8871, 0.6352 0.3937 1.8871, 0.6401 0.412 1.8792, 0.6443 0.4278 1.8667, 0.6578 0.4019 1.8792, 0.6476 0.3842 1.8871, 0.664 0.3937 1.8792, 0.668 0.3842 1.8792, 0.6578 0.4222 1.8667, 0.6693 0.4134 1.8667, 0.6781 0.4019 1.8667, 0.6837 0.3884 1.8667, 0.6476 0.4399 1.8504, 0.664 0.4331 1.8504, 0.6781 0.4222 1.8504, 0.689 0.4081 1.8504, 0.6958 0.3917 1.8504, 0.668 0.4399 1.8314, 0.6837 0.4278 1.8314, 0.6958 0.412 1.8314, 0.7034 0.3937 1.8314, 0.6503 0.4501 1.811, 0.6693 0.4422 1.811, 0.6856 0.4297 1.811, 0.6981 0.4134 1.811, 0.706 0.3944 1.811, -0.7034 0.3937 1.8314, -0.664 0.3937 1.8792, -0.6476 0.3842 1.8871, -0.6443 0.3884 1.8871, -0.6352 0.3937 1.8871, -0.6496 0.3793 1.8871, -0.668 0.3842 1.8792, -0.6837 0.3884 1.8667, -0.6578 0.4019 1.8792, -0.6401 0.3917 1.8871, -0.6496 0.4081 1.8792, -0.6401 0.412 1.8792, -0.6781 0.4019 1.8667, -0.6693 0.4134 1.8667, -0.6578 0.4222 1.8667, -0.6443 0.4278 1.8667, -0.6958 0.3917 1.8504, -0.689 0.4081 1.8504, -0.6781 0.4222 1.8504, -0.664 0.4331 1.8504, -0.6476 0.4399 1.8504, -0.6958 0.412 1.8314, -0.6837 0.4278 1.8314, -0.668 0.4399 1.8314, -0.6496 0.4475 1.8314, -0.706 0.3944 1.811, -0.6981 0.4134 1.811, -0.6856 0.4297 1.811, -0.6693 0.4422 1.811, -0.6503 0.4501 1.811, -0.6475 0.4339 0.4831, -0.6502 0.4331 0.4836, -0.6643 0.4288 0.4861, -0.6691 0.4262 0.4876, -0.6793 0.4206 0.4908, -0.6852 0.4153 0.4938, -0.6917 0.4096 0.4971, -0.7068 0.3821 0.513, -0.7057 0.385 0.5113, -0.7011 0.3966 0.5046, -0.6977 0.4013 0.5019, 0.3885 0.2431 0.2654, 0.3964 0.2595 0.2559, 0.4089 0.2737 0.2478, 0.4252 0.2845 0.2415, 0.4442 0.2913 0.2376, 0.7068 0.3887 0.5245, 0.7057 0.3916 0.5228, 0.7011 0.4032 0.5161, 0.6977 0.4079 0.5133, 0.6917 0.4162 0.5085, 0.6852 0.4219 0.5052, 0.6793 0.4272 0.5022, 0.6691 0.4328 0.499, 0.6643 0.4354 0.4975, 0.6502 0.4397 0.495, 0.6475 0.4405 0.4945, 0.6981 0.4134 0.5329, 0.6856 0.4297 0.5329, 0.6983 0.4129 0.5329, 0.7061 0.3935 0.5329, 0.706 0.3944 0.5329, 0.6991 0.411 0.5329, 0.6848 0.4303 0.5329, 0.663 0.4448 0.5329, 0.6518 0.4494 0.5329, 0.6816 0.4328 0.5329, 0.6693 0.4422 0.5329, 0.6654 0.4438 0.5329, 0.6405 0.4514 0.5329, 0.6503 0.4501 0.5329, -0.6503 0.4501 0.5329, -0.6693 0.4422 0.5329, -0.6856 0.4297 0.5329, -0.6981 0.4134 0.5329, -0.706 0.3944 0.5329, -0.706 0.3917 0.5227, -0.6981 0.4081 0.5132, -0.6856 0.4222 0.5051, -0.6693 0.4331 0.4988, -0.6503 0.4399 0.4949, 0.3257 0.4216 0.4607, 0.2738 0.4364 0.486, 0.2422 0.4456 0.5002, 0.2479 0.4452 0.4994, 0.2461 0.4411 0.4941, 0.2783 0.4429 0.495, 0.2859 0.4424 0.4939, 0.2182 0.4463 0.5017, 0.2177 0.4439 0.4989, 0.1985 0.4468 0.5029, 0.189 0.4449 0.5006, 0.189 0.4469 0.503, 0.3965 0.2753 0.2785, 0.4091 0.2892 0.2718, 0.425 0.3001 0.2672, 0.3797 0.294 0.3329, 0.3883 0.2593 0.2868, 0.3608 0.3258 0.3757, 0.3327 0.3532 0.4125, 0.3709 0.4002 0.424, 0.4069 0.3731 0.3776, 0.4317 0.3416 0.3236, 0.4434 0.3073 0.2649, 0.2972 0.3748 0.4418, 0.2562 0.3897 0.462, 0.2342 0.3944 0.4684, 0.2118 0.3973 0.4723, 0.3884 0.3091 0.3272, 0.4005 0.3226 0.3237, 0.3692 0.3403 0.3726, 0.38 0.3534 0.3719, 0.34 0.3672 0.4119, 0.3491 0.38 0.4137, 0.3029 0.3884 0.4431, 0.3097 0.401 0.4468, 0.2598 0.4031 0.4647, 0.264 0.4156 0.4698, 0.2367 0.4077 0.4716, 0.2396 0.4202 0.4771, 0.213 0.4106 0.4758, 0.2144 0.423 0.4815, 0.189 0.3982 0.4736, 0.189 0.4023 0.4747, 0.189 0.4115 0.4772, 0.189 0.4191 0.4808, 0.189 0.4239 0.483, 0.189 0.4343 0.4903, 0.4151 0.3336 0.3224, 0.3928 0.3645 0.3736, 0.3595 0.3912 0.4177, 0.3174 0.4122 0.4527, 0.2687 0.4268 0.4769, 0.2427 0.4314 0.4846, 0.216 0.4342 0.4893, 0.189 0.4352 0.4909, 0.6471 0.4502 0.5233, 0.6646 0.4441 0.5319, 0.6542 0.4475 0.5185, 0.6987 0.4124 0.532, 0.6896 0.4242 0.5224, 0.6776 0.4335 0.5133, 0.6727 0.4395 0.5236, 0.6469 0.4428 0.4985, 0.6631 0.4398 0.5052, 0.6424 0.4467 0.5053, 0.6387 0.4481 0.5078, 0.6388 0.452 0.5262, 0.6345 0.449 0.5093, 0.6299 0.4526 0.5272, 0.6299 0.4498 0.5126, 0.6299 0.4493 0.5098, 0.6452 0.4449 0.5022, 0.6597 0.444 0.5124, -0.6299 0.4501 0.5125, -0.6503 0.4475 0.5132, -0.6693 0.4399 0.5153, -0.6856 0.4278 0.5185, -0.6981 0.412 0.5227, -0.706 0.3937 0.5276, -0.189 0.3982 0.4736, -0.189 0.4023 0.4747, -0.189 0.4469 0.503, -0.189 0.4449 0.5006, -0.189 0.4352 0.4909, -0.189 0.4343 0.4903, -0.189 0.4239 0.483, -0.189 0.4191 0.4808, -0.189 0.4115 0.4772, -0.1985 0.4468 0.5029, -0.2406 0.4457 0.5003, -0.2422 0.4456 0.5002, -0.271 0.4435 0.496, -0.2859 0.4424 0.4939, -0.3849 0.2785 0.3124, -0.3704 0.3122 0.3574, -0.2673 0.4377 0.4882, -0.2945 0.4315 0.4776, -0.2288 0.3953 0.4696, -0.2309 0.4086 0.4729, -0.2335 0.4211 0.4784, -0.2362 0.4323 0.4861, -0.2392 0.442 0.4956, -0.251 0.391 0.4638, -0.2626 0.4281 0.479, -0.2583 0.4168 0.4718, -0.2544 0.4043 0.4666, -0.2726 0.3847 0.4553, -0.277 0.3982 0.4576, -0.2823 0.4108 0.4622, -0.2882 0.422 0.4689, -0.3124 0.3668 0.4309, -0.345 0.4137 0.4471, -0.3354 0.4044 0.4398, -0.3266 0.3932 0.4345, -0.3188 0.3805 0.4315, -0.3457 0.3422 0.3977, -0.3875 0.3893 0.4053, -0.3749 0.3805 0.4, -0.3634 0.3693 0.3968, -0.3535 0.3564 0.3961, -0.4194 0.3597 0.3545, -0.4041 0.3513 0.3517, -0.3904 0.3402 0.3512, -0.379 0.327 0.3532, -0.4386 0.3263 0.2975, -0.4212 0.3187 0.2978, -0.4059 0.3077 0.3005, -0.3935 0.2941 0.3054, -0.4442 0.2913 0.2376, -0.4252 0.2845 0.2415, -0.4089 0.2737 0.2478, -0.3964 0.2595 0.2559, -0.3885 0.2431 0.2654, -0.3885 0.2431 0.2654
            ]
        }
        coordIndex [
            0,1,2,-1,2,1,3,-1,2,3,4,-1,5,6,7,-1,8,4,9,-1,9,4,10,-1,11,12,13,-1,14,15,16,-1,16,15,1,-1,16,1,17,-1,18,19,20,-1,20,19,21,-1,7,17,5,-1,5,17,1,-1,5,1,22,-1,22,1,0,-1,22,0,10,-1,23,24,25,-1,26,27,28,-1,28,27,29,-1,28,29,30,-1,31,32,28,-1,28,32,33,-1,34,35,36,-1,36,35,37,-1,33,38,28,-1,28,38,37,-1,28,37,39,-1,39,37,35,-1,30,40,28,-1,28,40,41,-1,28,41,31,-1,24,42,25,-1,25,42,0,-1,25,0,13,-1,13,0,43,-1,13,43,11,-1,18,44,19,-1,19,44,45,-1,19,45,46,-1,46,45,47,-1,46,47,48,-1,47,49,48,-1,48,49,50,-1,48,50,25,-1,25,50,51,-1,25,51,23,-1,42,52,0,-1,0,52,53,-1,0,53,54,-1,54,55,0,-1,0,55,56,-1,0,56,10,-1,10,56,57,-1,10,57,9,-1,9,57,58,-1,9,58,28,-1,28,58,59,-1,28,59,26,-1,60,61,62,-1,62,61,63,-1,61,64,63,-1,63,64,21,-1,63,21,11,-1,11,21,19,-1,11,19,12,-1,65,66,62,-1,62,66,2,-1,62,2,60,-1,60,2,4,-1,60,4,67,-1,67,4,8,-1,68,69,70,-1,70,69,71,-1,72,73,74,-1,75,66,76,-1,76,66,77,-1,76,77,78,-1,78,77,0,-1,74,79,72,-1,72,79,80,-1,72,80,81,-1,82,83,2,-1,2,83,84,-1,2,84,0,-1,0,84,85,-1,86,87,78,-1,78,87,88,-1,85,89,0,-1,0,89,90,-1,0,90,78,-1,78,90,91,-1,78,91,86,-1,81,82,72,-1,72,82,2,-1,72,2,71,-1,71,2,66,-1,71,66,70,-1,70,66,75,-1,88,92,78,-1,78,92,93,-1,78,93,72,-1,72,93,94,-1,72,94,73,-1,95,96,97,-1,97,96,98,-1,97,98,99,-1,99,98,100,-1,99,100,101,-1,101,100,102,-1,101,102,103,-1,103,102,104,-1,103,104,105,-1,105,104,106,-1,105,106,107,-1,107,106,108,-1,107,108,109,-1,109,108,110,-1,108,111,110,-1,110,111,112,-1,110,112,113,-1,113,112,114,-1,112,115,114,-1,114,115,116,-1,114,116,117,-1,116,118,117,-1,117,118,119,-1,117,119,120,-1,119,121,120,-1,120,121,122,-1,120,122,123,-1,122,124,123,-1,123,124,125,-1,123,125,126,-1,126,125,127,-1,126,127,128,-1,128,127,129,-1,128,129,130,-1,130,129,131,-1,130,131,132,-1,132,131,133,-1,132,133,134,-1,134,133,135,-1,134,135,136,-1,136,135,137,-1,136,137,138,-1,138,137,139,-1,138,139,140,-1,140,139,141,-1,140,141,142,-1,142,141,143,-1,142,143,144,-1,145,146,147,-1,147,146,148,-1,147,148,149,-1,149,148,150,-1,151,152,153,-1,153,152,154,-1,153,154,155,-1,155,154,156,-1,157,158,159,-1,159,160,157,-1,157,160,161,-1,157,161,162,-1,162,161,163,-1,164,165,166,-1,166,165,162,-1,166,162,167,-1,167,162,163,-1,168,169,170,-1,171,172,173,-1,173,172,174,-1,173,174,170,-1,170,174,175,-1,170,175,168,-1,176,177,173,-1,173,177,178,-1,173,178,171,-1,179,180,181,-1,182,183,184,-1,182,184,185,-1,185,184,186,-1,185,186,187,-1,187,186,188,-1,187,188,189,-1,190,191,192,-1,192,191,193,-1,192,193,194,-1,189,188,195,-1,195,188,196,-1,195,196,197,-1,197,196,198,-1,198,196,199,-1,198,199,200,-1,190,192,199,-1,199,192,201,-1,199,201,200,-1,179,181,202,-1,193,203,194,-1,194,203,204,-1,194,204,205,-1,205,204,206,-1,207,208,206,-1,206,208,209,-1,206,209,205,-1,210,211,212,-1,212,211,213,-1,212,213,207,-1,207,213,214,-1,207,214,208,-1,181,215,202,-1,202,215,216,-1,202,216,212,-1,212,216,217,-1,212,217,210,-1,218,219,220,-1,220,219,221,-1,222,223,224,-1,224,223,225,-1,226,227,228,-1,228,227,229,-1,230,96,95,-1,231,232,233,-1,233,232,234,-1,233,234,235,-1,236,237,238,-1,230,95,239,-1,234,240,235,-1,235,240,241,-1,235,241,242,-1,242,241,243,-1,244,245,243,-1,243,245,246,-1,243,246,242,-1,247,248,249,-1,249,248,250,-1,249,250,244,-1,244,250,251,-1,244,251,245,-1,252,177,253,-1,253,177,176,-1,253,176,254,-1,254,176,144,-1,254,144,143,-1,236,238,255,-1,255,238,256,-1,255,256,252,-1,252,256,257,-1,252,257,258,-1,231,233,236,-1,236,233,259,-1,236,259,237,-1,95,165,239,-1,239,165,164,-1,239,164,249,-1,249,164,260,-1,249,260,247,-1,258,261,252,-1,252,261,262,-1,252,262,177,-1,117,120,263,-1,263,120,264,-1,265,266,267,-1,267,266,268,-1,269,270,271,-1,271,272,269,-1,269,272,273,-1,269,273,274,-1,274,273,275,-1,216,215,276,-1,276,215,274,-1,276,274,277,-1,277,274,275,-1,278,279,280,-1,281,282,283,-1,283,282,284,-1,283,284,280,-1,280,284,285,-1,280,285,278,-1,185,187,283,-1,283,187,286,-1,283,286,281,-1,287,288,194,-1,194,288,192,-1,289,290,66,-1,66,290,291,-1,66,291,77,-1,65,292,66,-1,66,292,293,-1,66,293,289,-1,294,295,296,-1,296,295,297,-1,296,297,289,-1,289,297,298,-1,289,298,290,-1,294,299,295,-1,295,299,300,-1,295,300,301,-1,301,300,302,-1,300,303,302,-1,302,303,304,-1,302,304,305,-1,305,304,306,-1,304,307,306,-1,306,307,308,-1,306,308,309,-1,309,308,310,-1,311,288,287,-1,308,312,310,-1,310,312,311,-1,310,311,313,-1,313,311,287,-1,314,63,11,-1,315,11,316,-1,316,11,43,-1,315,317,11,-1,11,317,318,-1,11,318,314,-1,319,320,321,-1,321,320,322,-1,321,322,317,-1,317,322,323,-1,317,323,318,-1,319,324,320,-1,320,324,325,-1,320,325,326,-1,326,325,327,-1,325,328,327,-1,327,328,329,-1,327,329,330,-1,330,329,331,-1,329,332,331,-1,331,332,333,-1,331,333,334,-1,334,333,335,-1,336,337,338,-1,333,339,335,-1,335,339,336,-1,335,336,340,-1,340,336,338,-1,233,235,337,-1,337,235,338,-1,164,166,260,-1,260,166,341,-1,260,341,247,-1,247,341,248,-1,248,341,342,-1,248,342,250,-1,250,342,251,-1,251,342,343,-1,251,343,245,-1,245,343,344,-1,245,344,246,-1,246,344,345,-1,246,345,242,-1,242,345,338,-1,242,338,235,-1,192,288,346,-1,192,346,201,-1,201,346,347,-1,201,347,200,-1,347,348,200,-1,200,348,349,-1,200,349,198,-1,349,350,198,-1,198,350,351,-1,198,351,197,-1,351,352,197,-1,197,352,353,-1,197,353,195,-1,353,354,195,-1,195,354,355,-1,195,355,189,-1,355,356,189,-1,189,356,286,-1,189,286,187,-1,335,340,357,-1,331,334,358,-1,359,360,361,-1,362,363,364,-1,365,159,158,-1,359,361,366,-1,367,368,369,-1,369,368,370,-1,371,372,370,-1,370,372,373,-1,370,373,369,-1,374,375,371,-1,371,375,376,-1,371,376,372,-1,377,362,378,-1,378,362,364,-1,378,364,374,-1,374,364,379,-1,374,379,375,-1,314,318,380,-1,360,377,361,-1,361,377,378,-1,361,378,381,-1,381,378,374,-1,381,374,382,-1,382,374,371,-1,382,371,383,-1,383,371,370,-1,383,370,380,-1,380,370,368,-1,380,368,314,-1,314,368,367,-1,314,367,63,-1,380,384,383,-1,383,384,385,-1,383,385,382,-1,382,385,386,-1,382,386,381,-1,381,386,387,-1,381,387,361,-1,361,387,365,-1,361,365,366,-1,366,365,158,-1,322,320,388,-1,160,159,389,-1,389,159,365,-1,389,365,390,-1,390,365,387,-1,390,387,391,-1,391,387,386,-1,391,386,392,-1,392,386,385,-1,392,385,388,-1,388,385,384,-1,388,384,322,-1,322,384,380,-1,322,380,323,-1,323,380,318,-1,326,327,393,-1,161,160,394,-1,394,160,389,-1,394,389,395,-1,395,389,390,-1,395,390,396,-1,396,390,391,-1,396,391,397,-1,397,391,392,-1,397,392,393,-1,393,392,388,-1,393,388,326,-1,326,388,320,-1,331,358,330,-1,163,161,398,-1,398,161,394,-1,398,394,399,-1,399,394,395,-1,399,395,400,-1,400,395,396,-1,400,396,401,-1,401,396,397,-1,401,397,358,-1,358,397,393,-1,358,393,330,-1,330,393,327,-1,167,163,402,-1,402,163,398,-1,402,398,403,-1,403,398,399,-1,403,399,404,-1,404,399,400,-1,404,400,405,-1,405,400,401,-1,405,401,357,-1,357,401,358,-1,357,358,335,-1,335,358,334,-1,166,167,341,-1,341,167,402,-1,341,402,342,-1,342,402,403,-1,342,403,343,-1,343,403,404,-1,343,404,344,-1,344,404,405,-1,344,405,345,-1,345,405,357,-1,345,357,338,-1,338,357,340,-1,62,63,367,-1,65,62,406,-1,406,62,367,-1,406,367,407,-1,407,367,369,-1,407,369,408,-1,408,369,373,-1,408,373,409,-1,409,373,372,-1,409,372,410,-1,410,372,376,-1,410,376,411,-1,411,376,375,-1,411,375,412,-1,412,375,379,-1,412,379,413,-1,413,379,364,-1,413,364,414,-1,414,364,363,-1,346,288,311,-1,415,416,279,-1,417,418,419,-1,419,418,420,-1,419,420,416,-1,416,420,421,-1,416,421,279,-1,417,419,422,-1,422,419,423,-1,422,423,424,-1,424,423,413,-1,424,413,414,-1,350,349,425,-1,425,349,348,-1,352,351,426,-1,426,351,350,-1,354,353,427,-1,427,353,352,-1,428,355,354,-1,281,286,356,-1,347,346,429,-1,429,346,311,-1,429,311,430,-1,311,312,430,-1,430,312,308,-1,430,308,431,-1,431,308,307,-1,307,304,431,-1,431,304,303,-1,431,303,432,-1,279,278,415,-1,415,278,285,-1,415,285,433,-1,433,285,284,-1,433,284,434,-1,434,284,282,-1,434,282,435,-1,435,282,281,-1,435,281,428,-1,428,281,356,-1,428,356,355,-1,303,300,432,-1,432,300,299,-1,432,299,436,-1,436,299,294,-1,436,294,437,-1,437,294,296,-1,437,296,438,-1,438,296,289,-1,289,293,438,-1,438,293,292,-1,438,292,439,-1,350,425,426,-1,426,425,440,-1,426,440,441,-1,441,440,442,-1,441,442,443,-1,443,442,444,-1,443,444,445,-1,445,444,446,-1,445,446,447,-1,447,446,448,-1,447,448,449,-1,449,448,450,-1,449,450,451,-1,451,450,452,-1,451,452,453,-1,292,65,439,-1,439,65,406,-1,439,406,407,-1,407,452,439,-1,439,452,450,-1,439,450,438,-1,438,450,448,-1,438,448,437,-1,437,448,446,-1,437,446,436,-1,436,446,444,-1,436,444,432,-1,432,444,442,-1,432,442,431,-1,431,442,440,-1,431,440,430,-1,430,440,425,-1,430,425,429,-1,429,425,348,-1,429,348,347,-1,407,408,452,-1,452,408,409,-1,452,409,453,-1,453,409,410,-1,453,410,411,-1,352,426,427,-1,427,426,441,-1,427,441,454,-1,454,441,443,-1,454,443,455,-1,455,443,445,-1,455,445,456,-1,456,445,447,-1,456,447,457,-1,457,447,449,-1,457,449,458,-1,458,449,451,-1,458,451,459,-1,459,451,453,-1,459,453,460,-1,460,453,411,-1,460,411,412,-1,354,427,428,-1,428,427,454,-1,428,454,435,-1,435,454,455,-1,435,455,434,-1,434,455,456,-1,434,456,433,-1,433,456,457,-1,433,457,415,-1,415,457,458,-1,415,458,416,-1,416,458,459,-1,416,459,419,-1,419,459,460,-1,419,460,423,-1,423,460,412,-1,423,412,413,-1,363,362,461,-1,280,279,462,-1,462,279,421,-1,462,421,463,-1,463,421,420,-1,463,420,418,-1,418,417,463,-1,463,417,422,-1,463,422,424,-1,363,461,414,-1,362,377,461,-1,461,377,360,-1,461,360,359,-1,359,366,461,-1,461,366,158,-1,461,158,157,-1,461,224,225,-1,424,414,463,-1,463,414,461,-1,463,461,464,-1,464,461,225,-1,224,461,465,-1,465,461,466,-1,465,466,467,-1,467,466,468,-1,467,468,469,-1,469,468,470,-1,469,470,471,-1,471,470,472,-1,471,472,473,-1,473,472,474,-1,473,474,148,-1,461,157,466,-1,466,157,475,-1,466,475,468,-1,468,475,476,-1,468,476,470,-1,470,476,477,-1,470,477,472,-1,472,477,478,-1,472,478,474,-1,474,478,479,-1,474,479,148,-1,480,481,482,-1,483,484,485,-1,486,487,488,-1,489,490,487,-1,487,490,491,-1,487,491,488,-1,492,493,489,-1,489,493,494,-1,489,494,490,-1,495,496,497,-1,498,499,500,-1,500,499,501,-1,500,501,502,-1,503,504,485,-1,485,504,482,-1,485,482,483,-1,483,482,481,-1,505,480,506,-1,506,480,482,-1,506,482,507,-1,507,482,504,-1,507,504,280,-1,503,280,504,-1,225,505,464,-1,464,505,506,-1,464,506,463,-1,463,506,507,-1,463,507,462,-1,462,507,280,-1,499,508,501,-1,501,508,509,-1,501,509,492,-1,492,509,497,-1,492,497,493,-1,493,497,496,-1,483,495,484,-1,484,495,497,-1,484,497,485,-1,485,497,509,-1,485,509,503,-1,503,509,508,-1,503,508,280,-1,499,280,508,-1,498,510,499,-1,499,510,280,-1,502,501,511,-1,511,501,492,-1,511,492,512,-1,512,492,489,-1,512,489,513,-1,513,489,514,-1,514,489,487,-1,514,487,515,-1,515,487,486,-1,515,486,516,-1,516,486,517,-1,516,517,518,-1,518,517,519,-1,518,519,153,-1,113,114,520,-1,520,114,117,-1,520,117,263,-1,520,521,113,-1,113,521,522,-1,113,522,110,-1,110,522,523,-1,110,523,109,-1,109,523,524,-1,109,524,107,-1,107,524,525,-1,107,525,105,-1,105,525,526,-1,105,526,103,-1,103,526,527,-1,103,527,101,-1,162,165,95,-1,101,527,99,-1,99,527,528,-1,99,528,97,-1,97,528,529,-1,97,529,95,-1,95,529,530,-1,95,530,162,-1,150,148,531,-1,531,148,479,-1,478,532,479,-1,479,532,533,-1,479,533,531,-1,534,535,477,-1,477,535,536,-1,477,536,478,-1,478,536,537,-1,478,537,532,-1,534,477,538,-1,538,477,476,-1,538,476,539,-1,539,476,475,-1,539,475,540,-1,540,475,541,-1,541,475,157,-1,541,157,162,-1,222,224,465,-1,222,465,542,-1,542,465,467,-1,542,467,543,-1,543,467,469,-1,543,469,544,-1,544,469,471,-1,544,471,545,-1,545,471,473,-1,545,473,546,-1,546,473,148,-1,546,148,146,-1,223,222,547,-1,223,547,548,-1,548,547,549,-1,548,549,550,-1,550,549,551,-1,550,551,552,-1,552,551,553,-1,552,553,554,-1,554,553,555,-1,554,555,556,-1,556,555,226,-1,556,226,228,-1,557,491,490,-1,491,557,488,-1,151,153,519,-1,151,519,558,-1,558,519,517,-1,558,517,557,-1,557,517,486,-1,557,486,488,-1,494,559,490,-1,490,559,560,-1,490,560,557,-1,483,481,561,-1,494,493,559,-1,559,493,496,-1,559,496,561,-1,561,496,495,-1,561,495,483,-1,225,223,505,-1,505,223,561,-1,505,561,480,-1,480,561,481,-1,283,280,562,-1,562,280,510,-1,562,510,563,-1,563,510,498,-1,563,498,564,-1,564,498,500,-1,564,500,565,-1,565,500,502,-1,565,502,566,-1,566,502,511,-1,566,511,567,-1,567,511,512,-1,567,512,568,-1,568,512,513,-1,568,513,569,-1,569,513,514,-1,569,514,570,-1,570,514,515,-1,570,515,571,-1,571,515,516,-1,571,516,572,-1,572,516,518,-1,572,518,155,-1,155,518,153,-1,185,283,182,-1,182,283,573,-1,182,573,574,-1,574,573,575,-1,574,575,576,-1,576,575,577,-1,576,577,578,-1,578,577,579,-1,578,579,580,-1,580,579,581,-1,580,581,582,-1,582,581,583,-1,582,583,584,-1,584,583,585,-1,584,585,586,-1,585,587,586,-1,586,587,588,-1,586,588,589,-1,589,588,590,-1,589,590,591,-1,590,592,591,-1,591,592,593,-1,591,593,594,-1,265,267,595,-1,595,267,594,-1,595,594,596,-1,596,594,593,-1,162,530,541,-1,520,263,150,-1,541,530,540,-1,540,530,529,-1,540,529,539,-1,539,529,528,-1,539,528,538,-1,538,528,527,-1,538,527,534,-1,534,527,526,-1,534,526,535,-1,535,526,525,-1,535,525,536,-1,150,531,520,-1,520,531,533,-1,520,533,521,-1,521,533,532,-1,521,532,522,-1,522,532,537,-1,522,537,523,-1,523,537,536,-1,523,536,524,-1,524,536,525,-1,146,597,598,-1,599,600,601,-1,226,555,602,-1,601,600,226,-1,603,226,600,-1,603,600,604,-1,604,600,599,-1,604,599,605,-1,606,226,603,-1,607,608,609,-1,609,608,602,-1,609,602,610,-1,610,602,555,-1,610,555,553,-1,606,603,611,-1,611,603,604,-1,611,604,612,-1,612,604,605,-1,612,605,613,-1,614,607,615,-1,615,607,609,-1,615,609,616,-1,616,609,610,-1,616,610,617,-1,617,610,553,-1,617,553,551,-1,618,614,619,-1,619,614,615,-1,619,615,620,-1,620,615,616,-1,620,616,621,-1,621,616,617,-1,621,617,622,-1,622,617,551,-1,622,551,549,-1,597,618,598,-1,598,618,619,-1,598,619,623,-1,623,619,620,-1,623,620,624,-1,624,620,621,-1,624,621,625,-1,625,621,622,-1,625,622,626,-1,626,622,549,-1,626,549,547,-1,146,598,546,-1,546,598,623,-1,546,623,545,-1,545,623,624,-1,545,624,544,-1,544,624,625,-1,544,625,543,-1,543,625,626,-1,543,626,542,-1,542,626,547,-1,542,547,222,-1,608,226,602,-1,597,613,618,-1,618,613,605,-1,618,605,614,-1,614,605,599,-1,614,599,607,-1,607,599,601,-1,607,601,608,-1,608,601,226,-1,223,548,627,-1,628,629,630,-1,228,631,632,-1,630,629,228,-1,633,228,629,-1,633,629,634,-1,634,629,628,-1,634,628,635,-1,556,228,633,-1,636,637,638,-1,638,637,632,-1,638,632,639,-1,639,632,631,-1,639,631,640,-1,556,633,554,-1,554,633,634,-1,554,634,552,-1,552,634,635,-1,552,635,550,-1,641,636,642,-1,642,636,638,-1,642,638,643,-1,643,638,639,-1,643,639,644,-1,644,639,640,-1,644,640,645,-1,646,641,647,-1,647,641,642,-1,647,642,648,-1,648,642,643,-1,648,643,649,-1,649,643,644,-1,649,644,650,-1,650,644,645,-1,650,645,651,-1,548,646,627,-1,627,646,647,-1,627,647,652,-1,652,647,648,-1,652,648,653,-1,653,648,649,-1,653,649,654,-1,654,649,650,-1,654,650,655,-1,655,650,651,-1,655,651,656,-1,223,627,561,-1,561,627,652,-1,561,652,559,-1,559,652,653,-1,559,653,560,-1,560,653,654,-1,560,654,557,-1,557,654,655,-1,557,655,558,-1,558,655,656,-1,558,656,151,-1,637,228,632,-1,548,550,646,-1,646,550,635,-1,646,635,641,-1,641,635,628,-1,641,628,636,-1,636,628,630,-1,636,630,637,-1,637,630,228,-1,657,658,155,-1,593,592,659,-1,659,592,590,-1,588,587,660,-1,660,587,585,-1,283,562,573,-1,573,562,575,-1,575,562,563,-1,575,563,577,-1,577,563,564,-1,577,564,579,-1,579,564,565,-1,579,565,581,-1,581,565,566,-1,581,566,583,-1,583,566,567,-1,583,567,585,-1,588,660,590,-1,590,660,661,-1,590,661,659,-1,155,662,657,-1,657,662,596,-1,657,596,593,-1,595,596,663,-1,663,596,662,-1,663,662,155,-1,265,595,664,-1,664,595,663,-1,664,663,155,-1,571,572,658,-1,658,572,155,-1,585,567,660,-1,660,567,568,-1,660,568,661,-1,661,568,569,-1,661,569,570,-1,593,659,657,-1,657,659,661,-1,657,661,658,-1,658,661,570,-1,658,570,571,-1,181,180,665,-1,665,180,666,-1,665,666,667,-1,667,666,668,-1,667,668,669,-1,669,668,670,-1,669,670,671,-1,671,670,672,-1,671,672,673,-1,673,672,674,-1,673,674,675,-1,675,674,676,-1,675,676,677,-1,677,676,678,-1,676,679,678,-1,678,679,680,-1,678,680,681,-1,681,680,682,-1,680,683,682,-1,682,683,684,-1,682,684,268,-1,268,684,685,-1,685,686,268,-1,268,686,687,-1,268,687,267,-1,267,687,688,-1,267,688,594,-1,688,689,594,-1,594,689,690,-1,594,690,591,-1,591,690,691,-1,591,691,589,-1,589,691,692,-1,589,692,586,-1,586,692,693,-1,586,693,584,-1,584,693,694,-1,584,694,582,-1,582,694,695,-1,582,695,580,-1,580,695,696,-1,580,696,578,-1,578,696,697,-1,578,697,576,-1,576,697,698,-1,576,698,574,-1,574,698,183,-1,574,183,182,-1,176,173,144,-1,144,173,699,-1,144,699,142,-1,142,699,700,-1,142,700,140,-1,140,700,701,-1,140,701,138,-1,138,701,702,-1,138,702,136,-1,136,702,703,-1,136,703,134,-1,134,703,704,-1,134,704,132,-1,132,704,705,-1,132,705,130,-1,705,706,130,-1,130,706,707,-1,130,707,128,-1,128,707,708,-1,128,708,126,-1,708,709,126,-1,126,709,710,-1,126,710,123,-1,264,120,711,-1,711,120,123,-1,711,123,712,-1,712,123,710,-1,263,264,150,-1,150,264,713,-1,150,713,149,-1,146,145,714,-1,146,714,597,-1,597,714,715,-1,597,715,613,-1,613,715,716,-1,613,716,612,-1,612,716,717,-1,612,717,611,-1,611,717,718,-1,611,718,606,-1,606,718,227,-1,606,227,226,-1,219,218,719,-1,219,719,720,-1,720,719,721,-1,720,721,722,-1,722,721,723,-1,722,723,724,-1,724,723,725,-1,724,725,726,-1,726,725,727,-1,726,727,728,-1,728,727,229,-1,728,229,227,-1,152,151,656,-1,152,656,729,-1,729,656,651,-1,729,651,730,-1,730,651,645,-1,730,645,731,-1,731,645,640,-1,731,640,732,-1,732,640,631,-1,732,631,733,-1,733,631,228,-1,733,228,229,-1,266,265,156,-1,156,265,664,-1,156,664,155,-1,734,671,735,-1,735,671,673,-1,735,673,736,-1,736,673,675,-1,736,675,737,-1,737,675,677,-1,737,677,738,-1,738,677,678,-1,738,678,739,-1,739,678,681,-1,739,681,740,-1,740,681,682,-1,740,682,741,-1,741,682,268,-1,741,268,266,-1,274,215,742,-1,742,215,181,-1,742,181,743,-1,743,181,665,-1,743,665,744,-1,744,665,667,-1,744,667,734,-1,734,667,669,-1,734,669,671,-1,745,746,149,-1,710,709,747,-1,747,709,708,-1,707,706,748,-1,748,706,705,-1,173,749,699,-1,699,749,700,-1,700,749,750,-1,700,750,701,-1,701,750,751,-1,701,751,702,-1,702,751,752,-1,702,752,703,-1,703,752,753,-1,703,753,704,-1,704,753,754,-1,704,754,705,-1,707,748,708,-1,708,748,755,-1,708,755,747,-1,149,756,745,-1,745,756,712,-1,745,712,710,-1,711,712,757,-1,757,712,756,-1,757,756,149,-1,264,711,713,-1,713,711,757,-1,713,757,149,-1,758,759,746,-1,746,759,149,-1,705,754,748,-1,748,754,760,-1,748,760,755,-1,755,760,761,-1,755,761,762,-1,710,747,745,-1,745,747,755,-1,745,755,746,-1,746,755,762,-1,746,762,758,-1,219,720,763,-1,764,765,766,-1,227,718,767,-1,766,765,227,-1,768,227,765,-1,768,765,769,-1,769,765,764,-1,769,764,770,-1,728,227,768,-1,771,772,773,-1,773,772,767,-1,773,767,774,-1,774,767,718,-1,774,718,717,-1,728,768,726,-1,726,768,769,-1,726,769,724,-1,724,769,770,-1,724,770,722,-1,775,771,776,-1,776,771,773,-1,776,773,777,-1,777,773,774,-1,777,774,778,-1,778,774,717,-1,778,717,716,-1,779,775,780,-1,780,775,776,-1,780,776,781,-1,781,776,777,-1,781,777,782,-1,782,777,778,-1,782,778,783,-1,783,778,716,-1,783,716,715,-1,720,779,763,-1,763,779,780,-1,763,780,784,-1,784,780,781,-1,784,781,785,-1,785,781,782,-1,785,782,786,-1,786,782,783,-1,786,783,787,-1,787,783,715,-1,787,715,714,-1,219,763,788,-1,788,763,784,-1,788,784,789,-1,789,784,785,-1,789,785,790,-1,790,785,786,-1,790,786,791,-1,791,786,787,-1,791,787,792,-1,792,787,714,-1,792,714,145,-1,772,227,767,-1,720,722,779,-1,779,722,770,-1,779,770,775,-1,775,770,764,-1,775,764,771,-1,771,764,766,-1,771,766,772,-1,772,766,227,-1,152,729,793,-1,794,795,796,-1,229,727,797,-1,796,795,229,-1,798,229,795,-1,798,795,799,-1,799,795,794,-1,799,794,800,-1,733,229,798,-1,801,802,803,-1,803,802,797,-1,803,797,804,-1,804,797,727,-1,804,727,725,-1,733,798,732,-1,732,798,799,-1,732,799,731,-1,731,799,800,-1,731,800,730,-1,805,801,806,-1,806,801,803,-1,806,803,807,-1,807,803,804,-1,807,804,808,-1,808,804,725,-1,808,725,723,-1,809,805,810,-1,810,805,806,-1,810,806,811,-1,811,806,807,-1,811,807,812,-1,812,807,808,-1,812,808,813,-1,813,808,723,-1,813,723,721,-1,729,809,793,-1,793,809,810,-1,793,810,814,-1,814,810,811,-1,814,811,815,-1,815,811,812,-1,815,812,816,-1,816,812,813,-1,816,813,817,-1,817,813,721,-1,817,721,719,-1,152,793,818,-1,818,793,814,-1,818,814,819,-1,819,814,815,-1,819,815,820,-1,820,815,816,-1,820,816,821,-1,821,816,817,-1,821,817,822,-1,822,817,719,-1,822,719,218,-1,802,229,797,-1,729,730,809,-1,809,730,800,-1,809,800,805,-1,805,800,794,-1,805,794,801,-1,801,794,796,-1,801,796,802,-1,802,796,229,-1,274,742,823,-1,741,266,156,-1,823,742,824,-1,824,742,743,-1,824,743,825,-1,825,743,744,-1,825,744,826,-1,826,744,734,-1,826,734,827,-1,827,734,735,-1,827,735,828,-1,828,735,736,-1,828,736,829,-1,156,830,741,-1,741,830,831,-1,741,831,740,-1,740,831,832,-1,740,832,739,-1,739,832,833,-1,739,833,738,-1,738,833,829,-1,738,829,737,-1,737,829,736,-1,233,337,834,-1,233,834,259,-1,259,834,835,-1,259,835,237,-1,237,835,836,-1,237,836,238,-1,837,257,836,-1,836,257,256,-1,836,256,238,-1,838,178,177,-1,177,262,838,-1,838,262,261,-1,838,261,837,-1,837,261,258,-1,837,258,257,-1,147,149,839,-1,839,149,759,-1,839,759,840,-1,840,759,758,-1,840,758,841,-1,841,758,762,-1,841,762,842,-1,842,762,761,-1,842,761,843,-1,843,761,760,-1,843,760,844,-1,844,760,754,-1,844,754,845,-1,845,754,753,-1,845,753,846,-1,846,753,752,-1,846,752,847,-1,847,752,751,-1,847,751,848,-1,848,751,750,-1,848,750,849,-1,849,750,749,-1,849,749,170,-1,170,749,173,-1,791,850,851,-1,850,791,852,-1,145,147,853,-1,145,853,792,-1,792,853,854,-1,792,854,791,-1,791,854,855,-1,791,855,852,-1,856,789,851,-1,851,789,790,-1,851,790,791,-1,857,858,788,-1,856,859,789,-1,789,859,860,-1,789,860,788,-1,788,860,861,-1,788,861,857,-1,221,219,862,-1,862,219,788,-1,862,788,863,-1,863,788,858,-1,218,220,864,-1,218,864,822,-1,822,864,865,-1,822,865,821,-1,821,865,866,-1,821,866,820,-1,820,866,867,-1,820,867,819,-1,819,867,868,-1,819,868,818,-1,818,868,154,-1,818,154,152,-1,156,154,830,-1,830,154,869,-1,870,832,869,-1,869,832,831,-1,869,831,830,-1,827,828,871,-1,871,828,829,-1,871,829,870,-1,870,829,833,-1,870,833,832,-1,827,871,826,-1,826,871,872,-1,826,872,825,-1,825,872,873,-1,825,873,824,-1,824,873,823,-1,823,873,269,-1,823,269,274,-1,874,875,169,-1,876,877,878,-1,878,877,879,-1,878,879,875,-1,875,879,880,-1,875,880,169,-1,876,878,881,-1,881,878,882,-1,881,882,883,-1,883,882,884,-1,883,884,885,-1,836,835,886,-1,837,836,887,-1,838,837,888,-1,889,890,336,-1,336,890,834,-1,336,834,337,-1,336,339,889,-1,889,339,333,-1,889,333,891,-1,891,333,332,-1,332,329,891,-1,891,329,328,-1,891,328,892,-1,169,168,874,-1,874,168,175,-1,874,175,893,-1,893,175,174,-1,893,174,894,-1,894,174,172,-1,894,172,895,-1,895,172,171,-1,895,171,896,-1,896,171,178,-1,896,178,838,-1,328,325,892,-1,892,325,324,-1,892,324,897,-1,897,324,319,-1,897,319,898,-1,898,319,321,-1,898,321,899,-1,899,321,317,-1,317,315,899,-1,899,315,316,-1,899,316,900,-1,836,886,887,-1,887,886,901,-1,887,901,902,-1,902,901,903,-1,902,903,904,-1,904,903,905,-1,904,905,906,-1,906,905,907,-1,906,907,908,-1,908,907,909,-1,908,909,910,-1,910,909,911,-1,910,911,912,-1,912,911,913,-1,912,913,914,-1,316,43,900,-1,900,43,915,-1,900,915,916,-1,916,913,900,-1,900,913,911,-1,900,911,899,-1,899,911,909,-1,899,909,898,-1,898,909,907,-1,898,907,897,-1,897,907,905,-1,897,905,892,-1,892,905,903,-1,892,903,891,-1,891,903,901,-1,891,901,889,-1,889,901,886,-1,889,886,890,-1,890,886,835,-1,890,835,834,-1,916,917,913,-1,913,917,918,-1,913,918,914,-1,914,918,919,-1,914,919,920,-1,837,887,888,-1,888,887,902,-1,888,902,921,-1,921,902,904,-1,921,904,922,-1,922,904,906,-1,922,906,923,-1,923,906,908,-1,923,908,924,-1,924,908,910,-1,924,910,925,-1,925,910,912,-1,925,912,926,-1,926,912,914,-1,926,914,927,-1,927,914,920,-1,927,920,928,-1,838,888,896,-1,896,888,921,-1,896,921,895,-1,895,921,922,-1,895,922,894,-1,894,922,923,-1,894,923,893,-1,893,923,924,-1,893,924,874,-1,874,924,925,-1,874,925,875,-1,875,925,926,-1,875,926,878,-1,878,926,927,-1,878,927,882,-1,882,927,928,-1,882,928,884,-1,863,858,929,-1,857,930,931,-1,855,932,852,-1,933,851,932,-1,932,851,850,-1,932,850,852,-1,934,859,933,-1,933,859,856,-1,933,856,851,-1,861,860,935,-1,848,936,847,-1,847,936,937,-1,847,937,846,-1,938,939,931,-1,931,939,929,-1,931,929,857,-1,857,929,858,-1,862,863,940,-1,940,863,929,-1,940,929,941,-1,941,929,939,-1,941,939,170,-1,938,170,939,-1,221,862,942,-1,942,862,940,-1,942,940,943,-1,943,940,941,-1,943,941,944,-1,944,941,170,-1,936,945,937,-1,937,945,946,-1,937,946,934,-1,934,946,935,-1,934,935,859,-1,859,935,860,-1,857,861,930,-1,930,861,935,-1,930,935,931,-1,931,935,946,-1,931,946,938,-1,938,946,945,-1,938,945,170,-1,936,170,945,-1,848,849,936,-1,936,849,170,-1,846,937,845,-1,845,937,934,-1,845,934,844,-1,844,934,933,-1,844,933,843,-1,843,933,842,-1,842,933,932,-1,842,932,841,-1,841,932,855,-1,841,855,840,-1,840,855,854,-1,840,854,839,-1,839,854,853,-1,839,853,147,-1,220,947,864,-1,864,947,948,-1,864,948,865,-1,865,948,949,-1,865,949,866,-1,866,949,950,-1,866,950,867,-1,867,950,951,-1,867,951,868,-1,868,951,952,-1,868,952,154,-1,947,269,948,-1,948,269,873,-1,948,873,949,-1,949,873,872,-1,949,872,950,-1,950,872,871,-1,950,871,951,-1,951,871,870,-1,951,870,952,-1,952,870,869,-1,952,869,154,-1,915,43,0,-1,77,953,0,-1,0,953,954,-1,0,954,915,-1,955,885,956,-1,956,885,884,-1,956,884,957,-1,957,884,928,-1,957,928,958,-1,958,928,920,-1,958,920,959,-1,959,920,919,-1,959,919,960,-1,960,919,918,-1,960,918,961,-1,961,918,917,-1,961,917,954,-1,954,917,916,-1,954,916,915,-1,170,169,944,-1,944,169,880,-1,944,880,943,-1,943,880,879,-1,943,879,877,-1,955,962,947,-1,877,876,943,-1,943,876,881,-1,943,881,883,-1,955,947,885,-1,962,963,947,-1,947,963,964,-1,947,964,965,-1,965,966,947,-1,947,966,270,-1,947,270,269,-1,947,220,221,-1,883,885,943,-1,943,885,947,-1,943,947,942,-1,942,947,221,-1,310,313,967,-1,306,309,968,-1,966,965,969,-1,962,955,956,-1,962,956,963,-1,970,271,270,-1,953,971,954,-1,954,971,972,-1,973,960,972,-1,972,960,961,-1,972,961,954,-1,974,958,973,-1,973,958,959,-1,973,959,960,-1,964,963,975,-1,975,963,956,-1,975,956,974,-1,974,956,957,-1,974,957,958,-1,291,290,976,-1,965,964,969,-1,969,964,975,-1,969,975,977,-1,977,975,974,-1,977,974,978,-1,978,974,973,-1,978,973,979,-1,979,973,972,-1,979,972,976,-1,976,972,971,-1,976,971,291,-1,291,971,953,-1,291,953,77,-1,976,980,979,-1,979,980,981,-1,979,981,978,-1,978,981,982,-1,978,982,977,-1,977,982,983,-1,977,983,969,-1,969,983,970,-1,969,970,966,-1,966,970,270,-1,297,295,984,-1,272,271,985,-1,985,271,970,-1,985,970,986,-1,986,970,983,-1,986,983,987,-1,987,983,982,-1,987,982,988,-1,988,982,981,-1,988,981,984,-1,984,981,980,-1,984,980,297,-1,297,980,976,-1,297,976,298,-1,298,976,290,-1,301,302,989,-1,273,272,990,-1,990,272,985,-1,990,985,991,-1,991,985,986,-1,991,986,992,-1,992,986,987,-1,992,987,993,-1,993,987,988,-1,993,988,989,-1,989,988,984,-1,989,984,301,-1,301,984,295,-1,306,968,305,-1,275,273,994,-1,994,273,990,-1,994,990,995,-1,995,990,991,-1,995,991,996,-1,996,991,992,-1,996,992,997,-1,997,992,993,-1,997,993,968,-1,968,993,989,-1,968,989,305,-1,305,989,302,-1,277,275,998,-1,998,275,994,-1,998,994,999,-1,999,994,995,-1,999,995,1000,-1,1000,995,996,-1,1000,996,1001,-1,1001,996,997,-1,1001,997,967,-1,967,997,968,-1,967,968,310,-1,310,968,309,-1,276,277,1002,-1,1002,277,998,-1,1002,998,1003,-1,1003,998,999,-1,1003,999,1004,-1,1004,999,1000,-1,1004,1000,1005,-1,1005,1000,1001,-1,1005,1001,1006,-1,1006,1001,967,-1,1006,967,287,-1,287,967,313,-1,216,276,217,-1,217,276,1002,-1,217,1002,210,-1,210,1002,211,-1,211,1002,1003,-1,211,1003,213,-1,213,1003,214,-1,214,1003,1004,-1,214,1004,208,-1,208,1004,1005,-1,208,1005,209,-1,209,1005,1006,-1,209,1006,205,-1,205,1006,287,-1,205,287,194,-1,
        ]
    }
}
Shape{
    appearance Appearance {
        material  Material 	{
            diffuseColor 0.6666666666666666 0.6666666666666666 0.6666666666666666
            specularColor 0.4666666666666667 0.4666666666666667 0.4666666666666667
            ambientIntensity 0.2
            transparency 0
            shininess 0.5
        }
    }
    geometry IndexedFaceSet {
        ccw TRUE
        solid FALSE
        coord DEF co Coordinate {
            point [
                -0.5195 -0.0962 0.0, -0.5283 -0.0932 0.0005, -0.5421 -0.0866 -1.9685, -0.518 -0.0966 0.0, -0.518 0.0966 -1.9685, -0.4921 0.1 0.0, -0.4921 0.1 -1.9685, -0.4662 0.0966 0.0, -0.4662 0.0966 -1.9685, -0.4421 0.0866 0.0, -0.4421 0.0866 -1.9685, -0.4214 0.0707 0.0, -0.4214 0.0707 -1.9685, -0.4055 0.05 0.0, -0.4055 0.05 -1.9685, -0.3955 0.0259 0.0, -0.3955 0.0259 -1.9685, -0.3921 -0.0 0.0, -0.3921 -0.0 -1.9685, -0.3955 -0.0259 0.0, -0.3955 -0.0259 -1.9685, -0.4055 -0.05 0.0, -0.4055 -0.05 -1.9685, -0.4214 -0.0707 0.0, -0.4214 -0.0707 -1.9685, -0.4421 -0.0866 0.0, -0.4421 -0.0866 -1.9685, -0.4662 -0.0966 0.0, -0.4662 -0.0966 -1.9685, -0.4921 -0.1 0.0, -0.4921 -0.1 -1.9685, -0.518 -0.0966 -1.9685, -0.5284 0.0932 0.0005, -0.5195 0.0962 0.0, -0.518 0.0966 0.0, -0.5628 0.0707 -1.9685, -0.5532 0.0792 0.0076, -0.5421 0.0866 -1.9685, -0.5419 0.0863 0.0037, -0.5368 0.0895 0.0019, -0.5787 0.05 -1.9685, -0.5676 0.0645 0.0171, -0.5628 0.0707 0.013, -0.5887 0.0259 -1.9685, -0.5802 0.0464 0.029, -0.5787 0.05 0.0268, -0.592 0.0055 0.0479, -0.5912 0.0134 0.0462, -0.5921 -0.0 -1.9685, -0.5899 0.0202 0.0434, -0.5887 0.0259 0.0411, -0.5899 -0.021 0.0434, -0.5915 -0.0108 0.0469, -0.5921 0.0 0.0482, -0.5887 -0.0259 0.0411, -0.5887 -0.0259 -1.9685, -0.5804 -0.0469 0.0288, -0.5787 -0.05 -1.9685, -0.5785 -0.0498 0.0269, -0.5628 -0.0707 -1.9685, -0.5625 -0.0704 0.0133, -0.568 -0.0651 0.0167, -0.5367 -0.0892 0.0022, -0.5421 -0.0866 0.0033, -0.5532 -0.0792 0.0076, -0.4921 -0.0 -1.9685, 0.5368 0.0895 0.0019, 0.5419 0.0863 0.0037, 0.5421 0.0866 -1.9685, 0.5195 -0.0962 0.0, 0.518 -0.0966 -1.9685, 0.5283 -0.0932 0.0005, 0.5421 -0.0866 -1.9685, 0.5367 -0.0892 0.0022, 0.5628 -0.0707 -1.9685, 0.5532 -0.0792 0.0076, 0.5421 -0.0866 0.0033, 0.5787 -0.05 -1.9685, 0.568 -0.0651 0.0167, 0.5625 -0.0704 0.0133, 0.5887 -0.0259 -1.9685, 0.5804 -0.0469 0.0288, 0.5785 -0.0498 0.0269, 0.5921 0.0 0.0482, 0.5915 -0.0108 0.0469, 0.5921 -0.0 -1.9685, 0.5899 -0.021 0.0434, 0.5887 -0.0259 0.0411, 0.5899 0.0202 0.0434, 0.5912 0.0134 0.0462, 0.592 0.0055 0.0479, 0.5887 0.0259 0.0411, 0.5887 0.0259 -1.9685, 0.5802 0.0464 0.029, 0.5787 0.05 -1.9685, 0.5787 0.05 0.0268, 0.5676 0.0645 0.0171, 0.5628 0.0707 -1.9685, 0.5628 0.0707 0.013, 0.5532 0.0792 0.0076, 0.518 0.0966 0.0, 0.5195 0.0962 0.0, 0.5284 0.0932 0.0005, 0.518 -0.0966 0.0, 0.4921 -0.1 0.0, 0.4921 -0.1 -1.9685, 0.4662 -0.0966 0.0, 0.4662 -0.0966 -1.9685, 0.4421 -0.0866 0.0, 0.4421 -0.0866 -1.9685, 0.4214 -0.0707 0.0, 0.4214 -0.0707 -1.9685, 0.4055 -0.05 0.0, 0.4055 -0.05 -1.9685, 0.3955 -0.0259 0.0, 0.3955 -0.0259 -1.9685, 0.3921 -0.0 0.0, 0.3921 -0.0 -1.9685, 0.3955 0.0259 0.0, 0.3955 0.0259 -1.9685, 0.4055 0.05 0.0, 0.4055 0.05 -1.9685, 0.4214 0.0707 0.0, 0.4214 0.0707 -1.9685, 0.4421 0.0866 0.0, 0.4421 0.0866 -1.9685, 0.4662 0.0966 0.0, 0.4662 0.0966 -1.9685, 0.4921 0.1 0.0, 0.4921 0.1 -1.9685, 0.518 0.0966 -1.9685, 0.4921 -0.0 -1.9685, 0.4921 -0.0 -1.9685
            ]
        }
        coordIndex [
            0,1,2,-1,0,2,3,-1,4,5,6,-1,6,5,7,-1,6,7,8,-1,8,7,9,-1,8,9,10,-1,10,9,11,-1,10,11,12,-1,12,11,13,-1,12,13,14,-1,14,13,15,-1,14,15,16,-1,16,15,17,-1,16,17,18,-1,18,17,19,-1,18,19,20,-1,20,19,21,-1,20,21,22,-1,22,21,23,-1,22,23,24,-1,24,23,25,-1,24,25,26,-1,26,25,27,-1,26,27,28,-1,28,27,29,-1,28,29,30,-1,30,29,3,-1,30,3,31,-1,31,3,2,-1,32,33,4,-1,4,33,34,-1,4,34,5,-1,35,36,37,-1,37,36,38,-1,37,38,4,-1,4,38,39,-1,4,39,32,-1,40,41,35,-1,35,41,42,-1,35,42,36,-1,43,44,40,-1,40,44,45,-1,40,45,41,-1,46,47,48,-1,48,47,49,-1,48,49,43,-1,43,49,50,-1,43,50,44,-1,51,52,48,-1,48,52,53,-1,48,53,46,-1,51,48,54,-1,54,48,55,-1,54,55,56,-1,56,55,57,-1,56,57,58,-1,59,60,57,-1,57,60,61,-1,57,61,58,-1,1,62,2,-1,2,62,63,-1,2,63,59,-1,59,63,64,-1,59,64,60,-1,57,55,65,-1,65,55,48,-1,65,48,43,-1,31,2,65,-1,65,2,59,-1,65,59,57,-1,26,28,65,-1,65,28,30,-1,65,30,31,-1,20,22,65,-1,65,22,24,-1,65,24,26,-1,14,16,65,-1,65,16,18,-1,65,18,20,-1,8,10,65,-1,65,10,12,-1,65,12,14,-1,37,4,65,-1,65,4,6,-1,65,6,8,-1,43,40,65,-1,65,40,35,-1,65,35,37,-1,66,67,68,-1,69,70,71,-1,71,70,72,-1,71,72,73,-1,74,75,72,-1,72,75,76,-1,72,76,73,-1,77,78,74,-1,74,78,79,-1,74,79,75,-1,80,81,77,-1,77,81,82,-1,77,82,78,-1,83,84,85,-1,85,84,86,-1,85,86,80,-1,80,86,87,-1,80,87,81,-1,88,89,85,-1,85,89,90,-1,85,90,83,-1,88,85,91,-1,91,85,92,-1,91,92,93,-1,93,92,94,-1,93,94,95,-1,95,94,96,-1,96,94,97,-1,96,97,98,-1,68,67,97,-1,97,67,99,-1,97,99,98,-1,100,101,68,-1,68,101,102,-1,68,102,66,-1,69,103,70,-1,70,103,104,-1,70,104,105,-1,105,104,106,-1,105,106,107,-1,107,106,108,-1,107,108,109,-1,109,108,110,-1,109,110,111,-1,111,110,112,-1,111,112,113,-1,113,112,114,-1,113,114,115,-1,115,114,116,-1,115,116,117,-1,117,116,118,-1,117,118,119,-1,119,118,120,-1,119,120,121,-1,121,120,122,-1,121,122,123,-1,123,122,124,-1,123,124,125,-1,125,124,126,-1,125,126,127,-1,127,126,128,-1,127,128,129,-1,129,128,100,-1,129,100,130,-1,130,100,68,-1,94,92,131,-1,131,92,85,-1,131,85,80,-1,130,68,131,-1,131,68,97,-1,131,97,94,-1,125,127,131,-1,131,127,129,-1,131,129,130,-1,119,121,131,-1,131,121,123,-1,131,123,125,-1,113,115,131,-1,131,115,117,-1,131,117,119,-1,107,109,131,-1,131,109,111,-1,131,111,113,-1,72,70,131,-1,131,70,105,-1,131,105,107,-1,80,77,131,-1,131,77,74,-1,131,74,72,-1,
        ]
    }
}
Shape{
    appearance Appearance {
        material  Material 	{
            diffuseColor 1.0 1.0 1.0
            specularColor 0.8784313725490196 0.8784313725490196 0.8784313725490196
            ambientIntensity 0.2
            transparency 0
            shininess 0.5
        }
    }
    geometry IndexedFaceSet {
        ccw TRUE
        solid FALSE
        coord DEF co Coordinate {
            point [
                -0.1335 0.0301 0.4803, -0.1642 -0.0487 0.4803, -0.1335 0.0301 0.4724, -0.1642 -0.0487 0.4724, -0.1527 -0.0487 0.4803, -0.1527 -0.0487 0.4724, -0.1447 -0.0266 0.4803, -0.1447 -0.0266 0.4724, -0.1122 -0.0266 0.4803, -0.1122 -0.0266 0.4724, -0.1047 -0.0487 0.4803, -0.1047 -0.0487 0.4724, -0.0931 -0.0487 0.4803, -0.0931 -0.0487 0.4724, -0.1229 0.0301 0.4803, -0.1229 0.0301 0.4724, -0.1148 -0.0179 0.4803, -0.1412 -0.0179 0.4803, -0.1266 0.015 0.4803, -0.1273 0.0177 0.4803, -0.1278 0.0205 0.4803, -0.1281 0.0205 0.4803, -0.1286 0.0177 0.4803, -0.1293 0.015 0.4803, -0.1148 -0.0179 0.4724, -0.1412 -0.0179 0.4724, -0.1266 0.015 0.4724, -0.1273 0.0177 0.4724, -0.1278 0.0205 0.4724, -0.1281 0.0205 0.4724, -0.1286 0.0177 0.4724, -0.1293 0.015 0.4724, -0.0454 -0.0487 0.4803, -0.024 -0.0487 0.4803, -0.0454 -0.0487 0.4724, -0.024 -0.0487 0.4724, -0.024 0.0301 0.4803, -0.024 0.0301 0.4724, -0.0462 0.0301 0.4803, -0.0462 0.0301 0.4724, -0.0874 -0.0083 0.4803, -0.0874 -0.0083 0.4724, -0.0868 -0.0009 0.4724, -0.0868 -0.0009 0.4803, -0.0847 0.0069 0.4724, -0.0847 0.0069 0.4803, -0.081 0.0136 0.4724, -0.081 0.0136 0.4803, -0.0755 0.0198 0.4724, -0.0755 0.0198 0.4803, -0.0754 0.0199 0.4724, -0.0754 0.0199 0.4803, -0.0668 0.0256 0.4724, -0.0668 0.0256 0.4803, -0.0576 0.0289 0.4724, -0.0576 0.0289 0.4803, -0.0552 -0.0478 0.4724, -0.0552 -0.0478 0.4803, -0.0642 -0.0451 0.4724, -0.0642 -0.0451 0.4803, -0.0725 -0.0403 0.4724, -0.0725 -0.0403 0.4803, -0.0789 -0.0341 0.4724, -0.0789 -0.0341 0.4803, -0.0835 -0.0271 0.4724, -0.0835 -0.0271 0.4803, -0.0863 -0.0188 0.4724, -0.0863 -0.0188 0.4803, -0.0716 0.0104 0.4803, -0.0678 0.0145 0.4803, -0.062 0.0182 0.4803, -0.0555 0.0205 0.4803, -0.0462 0.0214 0.4803, -0.0346 0.0214 0.4803, -0.0346 -0.04 0.4803, -0.0457 -0.04 0.4803, -0.0541 -0.0392 0.4803, -0.0607 -0.0372 0.4803, -0.066 -0.034 0.4803, -0.0705 -0.0296 0.4803, -0.0738 -0.0242 0.4803, -0.0761 -0.0168 0.4803, -0.0768 -0.0085 0.4803, -0.0762 -0.0007 0.4803, -0.0743 0.0055 0.4803, -0.0462 0.0214 0.4724, -0.0346 0.0214 0.4724, -0.0555 0.0205 0.4724, -0.062 0.0182 0.4724, -0.0678 0.0145 0.4724, -0.0716 0.0104 0.4724, -0.0743 0.0055 0.4724, -0.0762 -0.0007 0.4724, -0.0768 -0.0085 0.4724, -0.0761 -0.0168 0.4724, -0.0738 -0.0242 0.4724, -0.0705 -0.0296 0.4724, -0.066 -0.034 0.4724, -0.0607 -0.0372 0.4724, -0.0541 -0.0392 0.4724, -0.0457 -0.04 0.4724, -0.0346 -0.04 0.4724, -0.0086 -0.04 0.4803, -0.0086 -0.0487 0.4803, -0.0086 -0.04 0.4724, -0.0086 -0.0487 0.4724, 0.0336 -0.0487 0.4803, 0.0336 -0.0487 0.4724, 0.0336 0.0301 0.4803, 0.0336 0.0301 0.4724, -0.0067 0.0301 0.4803, -0.0067 0.0301 0.4724, -0.0067 0.0214 0.4803, -0.0067 0.0214 0.4724, 0.023 0.0214 0.4803, 0.023 0.0214 0.4724, 0.023 -0.0045 0.4803, 0.023 -0.0045 0.4724, -0.0048 -0.0045 0.4803, -0.0048 -0.0045 0.4724, -0.0048 -0.0131 0.4803, -0.0048 -0.0131 0.4724, 0.023 -0.0131 0.4803, 0.023 -0.0131 0.4724, 0.023 -0.04 0.4803, 0.023 -0.04 0.4724, 0.049 -0.0359 0.4803, 0.049 -0.0446 0.4803, 0.049 -0.0359 0.4724, 0.049 -0.0446 0.4724, 0.0574 -0.048 0.4803, 0.0706 -0.0496 0.4803, 0.0706 -0.0496 0.4724, 0.0685 -0.0496 0.4724, 0.0685 -0.0496 0.4803, 0.0653 -0.0491 0.4724, 0.0574 -0.048 0.4724, 0.1075 -0.0108 0.4803, 0.1075 -0.0108 0.4724, 0.1068 -0.0199 0.4724, 0.1068 -0.0199 0.4803, 0.1044 -0.0282 0.4724, 0.1044 -0.0282 0.4803, 0.1002 -0.0357 0.4724, 0.1002 -0.0357 0.4803, 0.0943 -0.0419 0.4724, 0.0943 -0.0419 0.4803, 0.088 -0.046 0.4724, 0.088 -0.046 0.4803, 0.0803 -0.0486 0.4724, 0.0803 -0.0486 0.4803, 0.0753 -0.0491 0.4724, 0.0675 0.031 0.4803, 0.0675 0.031 0.4724, 0.0754 0.0304 0.4724, 0.0754 0.0304 0.4803, 0.0842 0.0279 0.4724, 0.0842 0.0279 0.4803, 0.0917 0.0235 0.4724, 0.0917 0.0235 0.4803, 0.0988 0.0167 0.4724, 0.0988 0.0167 0.4803, 0.1034 0.0093 0.4724, 0.1034 0.0093 0.4803, 0.1064 0.0004 0.4724, 0.1064 0.0004 0.4803, 0.049 0.0279 0.4803, 0.049 0.0279 0.4724, 0.0581 0.0304 0.4724, 0.0581 0.0304 0.4803, 0.049 0.0174 0.4803, 0.049 0.0174 0.4724, 0.0674 0.0224 0.4803, 0.0674 0.0224 0.4724, 0.0578 0.0212 0.4724, 0.0578 0.0212 0.4803, 0.097 -0.0101 0.4803, 0.097 -0.0101 0.4724, 0.0966 -0.004 0.4724, 0.0966 -0.004 0.4803, 0.0945 0.0044 0.4724, 0.0945 0.0044 0.4803, 0.0913 0.0105 0.4724, 0.0913 0.0105 0.4803, 0.0865 0.0158 0.4724, 0.0865 0.0158 0.4803, 0.0811 0.0194 0.4724, 0.0811 0.0194 0.4803, 0.0752 0.0215 0.4724, 0.0752 0.0215 0.4803, 0.0692 -0.041 0.4803, 0.0692 -0.041 0.4724, 0.0765 -0.0401 0.4724, 0.0765 -0.0401 0.4803, 0.0823 -0.038 0.4724, 0.0823 -0.038 0.4803, 0.0871 -0.0348 0.4724, 0.0871 -0.0348 0.4803, 0.0908 -0.0309 0.4724, 0.0908 -0.0309 0.4803, 0.094 -0.0254 0.4724, 0.094 -0.0254 0.4803, 0.0962 -0.0186 0.4724, 0.0962 -0.0186 0.4803, 0.0504 -0.0367 0.4724, 0.0504 -0.0367 0.4803, 0.0587 -0.0398 0.4724, 0.0587 -0.0398 0.4803, 0.1143 -0.04 0.4803, 0.1143 -0.0487 0.4803, 0.1143 -0.04 0.4724, 0.1143 -0.0487 0.4724, 0.1546 -0.0487 0.4803, 0.1546 -0.0487 0.4724, 0.1546 0.0301 0.4803, 0.1546 0.0301 0.4724, 0.144 0.0301 0.4803, 0.144 0.0301 0.4724, 0.144 -0.04 0.4803, 0.144 -0.04 0.4724, 0.144 -0.04 0.4724
            ]
        }
        coordIndex [
            0,1,2,-1,2,1,3,-1,1,4,3,-1,3,4,5,-1,4,6,5,-1,5,6,7,-1,6,8,7,-1,7,8,9,-1,8,10,9,-1,9,10,11,-1,10,12,11,-1,11,12,13,-1,12,14,13,-1,13,14,15,-1,14,0,15,-1,15,0,2,-1,16,8,17,-1,17,8,6,-1,18,14,16,-1,16,14,12,-1,16,12,8,-1,8,12,10,-1,18,19,14,-1,14,19,20,-1,14,20,0,-1,0,20,21,-1,0,21,22,-1,22,23,0,-1,0,23,17,-1,0,17,1,-1,1,17,6,-1,1,6,4,-1,16,17,24,-1,24,17,25,-1,18,16,26,-1,26,16,24,-1,18,26,27,-1,18,27,19,-1,19,27,28,-1,19,28,20,-1,21,20,29,-1,29,20,28,-1,21,29,30,-1,21,30,22,-1,22,30,31,-1,22,31,23,-1,17,23,25,-1,25,23,31,-1,32,33,34,-1,34,33,35,-1,33,36,35,-1,35,36,37,-1,36,38,37,-1,37,38,39,-1,40,41,42,-1,40,42,43,-1,43,42,44,-1,43,44,45,-1,45,44,46,-1,45,46,47,-1,47,46,48,-1,47,48,49,-1,49,48,50,-1,49,50,51,-1,51,50,52,-1,51,52,53,-1,53,52,54,-1,53,54,55,-1,55,54,39,-1,55,39,38,-1,32,34,56,-1,32,56,57,-1,57,56,58,-1,57,58,59,-1,59,58,60,-1,59,60,61,-1,61,60,62,-1,61,62,63,-1,63,62,64,-1,63,64,65,-1,65,64,66,-1,65,66,67,-1,67,66,41,-1,67,41,40,-1,45,47,68,-1,68,47,49,-1,68,49,69,-1,69,49,51,-1,69,51,70,-1,70,51,53,-1,70,53,71,-1,71,53,55,-1,71,55,72,-1,72,55,38,-1,72,38,73,-1,73,38,36,-1,73,36,74,-1,74,36,33,-1,74,33,75,-1,75,33,32,-1,75,32,76,-1,76,32,57,-1,76,57,77,-1,77,57,59,-1,77,59,78,-1,78,59,61,-1,78,61,79,-1,79,61,63,-1,79,63,80,-1,80,63,65,-1,80,65,81,-1,81,65,67,-1,81,67,82,-1,82,67,40,-1,82,40,83,-1,83,40,43,-1,83,43,84,-1,84,43,45,-1,84,45,68,-1,72,73,85,-1,85,73,86,-1,72,85,87,-1,72,87,71,-1,71,87,88,-1,71,88,70,-1,70,88,89,-1,70,89,69,-1,69,89,90,-1,69,90,68,-1,68,90,91,-1,68,91,84,-1,84,91,92,-1,84,92,83,-1,83,92,93,-1,83,93,82,-1,82,93,94,-1,82,94,81,-1,81,94,95,-1,81,95,80,-1,80,95,96,-1,80,96,79,-1,79,96,97,-1,79,97,78,-1,78,97,98,-1,78,98,77,-1,77,98,99,-1,77,99,76,-1,76,99,100,-1,76,100,75,-1,74,75,101,-1,101,75,100,-1,73,74,86,-1,86,74,101,-1,102,103,104,-1,104,103,105,-1,103,106,105,-1,105,106,107,-1,106,108,107,-1,107,108,109,-1,108,110,109,-1,109,110,111,-1,110,112,111,-1,111,112,113,-1,112,114,113,-1,113,114,115,-1,114,116,115,-1,115,116,117,-1,116,118,117,-1,117,118,119,-1,118,120,119,-1,119,120,121,-1,120,122,121,-1,121,122,123,-1,122,124,123,-1,123,124,125,-1,124,102,125,-1,125,102,104,-1,106,103,102,-1,102,124,106,-1,106,124,122,-1,106,122,108,-1,112,110,114,-1,114,110,108,-1,114,108,116,-1,116,108,122,-1,116,122,118,-1,118,122,120,-1,126,127,128,-1,128,127,129,-1,129,127,130,-1,131,132,133,-1,131,133,134,-1,134,133,135,-1,134,135,130,-1,130,135,136,-1,130,136,129,-1,137,138,139,-1,137,139,140,-1,140,139,141,-1,140,141,142,-1,142,141,143,-1,142,143,144,-1,144,143,145,-1,144,145,146,-1,146,145,147,-1,146,147,148,-1,148,147,149,-1,148,149,150,-1,150,149,131,-1,131,149,151,-1,131,151,132,-1,152,153,154,-1,152,154,155,-1,155,154,156,-1,155,156,157,-1,157,156,158,-1,157,158,159,-1,159,158,160,-1,159,160,161,-1,161,160,162,-1,161,162,163,-1,163,162,164,-1,163,164,165,-1,165,164,138,-1,165,138,137,-1,166,167,168,-1,166,168,169,-1,169,168,153,-1,169,153,152,-1,166,170,167,-1,167,170,171,-1,172,173,174,-1,172,174,175,-1,175,174,171,-1,175,171,170,-1,176,177,178,-1,176,178,179,-1,179,178,180,-1,179,180,181,-1,181,180,182,-1,181,182,183,-1,183,182,184,-1,183,184,185,-1,185,184,186,-1,185,186,187,-1,187,186,188,-1,187,188,189,-1,189,188,173,-1,189,173,172,-1,190,191,192,-1,190,192,193,-1,193,192,194,-1,193,194,195,-1,195,194,196,-1,195,196,197,-1,197,196,198,-1,197,198,199,-1,199,198,200,-1,199,200,201,-1,201,200,202,-1,201,202,203,-1,203,202,177,-1,203,177,176,-1,126,128,204,-1,126,204,205,-1,205,204,206,-1,205,206,207,-1,207,206,191,-1,207,191,190,-1,193,131,190,-1,190,131,134,-1,190,134,207,-1,207,134,130,-1,207,130,205,-1,205,130,127,-1,205,127,126,-1,170,166,175,-1,175,166,169,-1,175,169,172,-1,172,169,152,-1,172,152,189,-1,189,152,155,-1,189,155,187,-1,187,155,157,-1,187,157,185,-1,185,157,159,-1,185,159,183,-1,183,159,161,-1,183,161,181,-1,181,161,163,-1,181,163,179,-1,179,163,165,-1,179,165,176,-1,176,165,137,-1,176,137,203,-1,203,137,140,-1,203,140,201,-1,201,140,142,-1,201,142,199,-1,199,142,144,-1,199,144,197,-1,197,144,146,-1,197,146,195,-1,195,146,148,-1,195,148,193,-1,193,148,150,-1,193,150,131,-1,208,209,210,-1,210,209,211,-1,209,212,211,-1,211,212,213,-1,212,214,213,-1,213,214,215,-1,214,216,215,-1,215,216,217,-1,216,218,217,-1,217,218,219,-1,218,208,219,-1,219,208,210,-1,216,214,218,-1,218,214,212,-1,218,212,208,-1,208,212,209,-1,
        ]
    }
}
Shape{
    appearance Appearance {
        material  Material 	{
            diffuseColor 0.6901960784313725 0.5176470588235295 0.3607843137254902
            specularColor 0.050980392156862744 0.03529411764705882 0.027450980392156862
            ambientIntensity 0.2
            transparency 0
            shininess 0.5
        }
    }
    geometry IndexedFaceSet {
        ccw TRUE
        solid FALSE
        coord DEF co Coordinate {
            point [
                -0.1148 -0.0179 0.4724, -0.1412 -0.0179 0.4724, -0.1266 0.015 0.4724, -0.1293 0.015 0.4724, -0.1273 0.0177 0.4724, -0.1286 0.0177 0.4724, -0.1278 0.0205 0.4724, -0.1281 0.0205 0.4724, -0.0346 0.0214 0.4724, -0.0346 -0.04 0.4724, -0.0462 0.0214 0.4724, -0.0457 -0.04 0.4724, -0.0541 -0.0392 0.4724, -0.0768 -0.0085 0.4724, -0.0762 -0.0007 0.4724, -0.0743 0.0055 0.4724, -0.0555 0.0205 0.4724, -0.0607 -0.0372 0.4724, -0.066 -0.034 0.4724, -0.0705 -0.0296 0.4724, -0.0738 -0.0242 0.4724, -0.0761 -0.0168 0.4724, -0.0716 0.0104 0.4724, -0.0678 0.0145 0.4724, -0.062 0.0182 0.4724, -0.062 0.0182 0.4724
            ]
        }
        coordIndex [
            0,1,2,-1,2,1,3,-1,2,3,4,-1,4,3,5,-1,4,5,6,-1,6,5,7,-1,8,9,10,-1,10,9,11,-1,10,11,12,-1,13,14,10,-1,10,14,15,-1,10,15,16,-1,12,17,10,-1,10,17,18,-1,10,18,19,-1,19,20,10,-1,10,20,21,-1,10,21,13,-1,22,23,15,-1,15,23,24,-1,15,24,16,-1,
        ]
    }
}