<svg width="24" height="24" viewBox="0 0 24 24" fill="none" xmlns="http://www.w3.org/2000/svg">
<path d="M4.06694 13.0409C4.25577 14.4809 4.83302 15.8423 5.73677 16.9791C6.64053 18.1159 7.83669 18.9853 9.19698 19.4939C10.5573 20.0026 12.0304 20.1314 13.4583 19.8665C14.8862 19.6016 16.2151 18.953 17.3024 17.9902C18.3897 17.0275 19.1944 15.7869 19.6303 14.4016C20.0661 13.0162 20.1166 11.5384 19.7764 10.1265C19.4361 8.71464 18.718 7.42202 17.699 6.38728C16.6799 5.35254 15.3984 4.61471 13.9919 4.25292C10.0929 3.25292 6.05694 5.25992 4.56694 8.99992" stroke="#494D51" stroke-linecap="round" stroke-linejoin="round"/>
<path d="M4 4V9H9" stroke="#494D51" stroke-linecap="round" stroke-linejoin="round"/>
</svg>
